<svg width="500" height="500" viewBox="0 0 500 500" fill="none" xmlns="http://www.w3.org/2000/svg">
<g clip-path="url(#clip0_24_3)">
<path d="M550 -50H-50V550H550V-50Z" fill="white"/>
<path d="M550 -50H-50V550H550V-50Z" fill="black"/>
<path d="M23 373.75H25.5381V395.598H39.013V397.815H23V373.75Z" fill="white"/>
<path d="M70.5118 395.598V397.815H53.5297V373.75H70.0042V375.968H56.0678V384.513H68.4813V386.684H56.0678V395.598H70.5118Z" fill="white"/>
<path d="M103.788 395.598V397.815H86.8061V373.75H103.281V375.968H89.3442V384.513H101.758V386.684H89.3442V395.598H103.788Z" fill="white"/>
<path d="M120.082 373.75H122.621V395.598H136.096V397.815H120.082V373.75Z" fill="white"/>
<path d="M165.656 391.395H152.273L149.412 397.815H146.736L157.765 373.75H160.257L171.24 397.815H168.563L165.656 391.395ZM164.733 389.316L158.965 376.383L153.196 389.316H164.733Z" fill="white"/>
<path d="M215.268 398C212.892 398 210.746 397.48 208.808 396.43C206.893 395.39 205.404 393.935 204.332 392.088C203.247 390.217 202.716 388.115 202.716 385.806C202.716 383.473 203.247 381.372 204.332 379.524C205.404 377.653 206.893 376.187 208.808 375.136C210.746 374.097 212.915 373.566 215.315 373.566C217.091 373.566 218.741 373.866 220.252 374.443C221.752 375.032 223.033 375.91 224.082 377.076L222.467 378.693C220.587 376.787 218.222 375.829 215.361 375.829C213.446 375.829 211.715 376.268 210.146 377.122C208.6 377.988 207.389 379.189 206.5 380.725C205.635 382.238 205.208 383.935 205.208 385.806C205.208 387.688 205.635 389.386 206.5 390.887C207.389 392.4 208.6 393.589 210.146 394.443C211.715 395.309 213.446 395.737 215.361 395.737C218.245 395.737 220.621 394.79 222.467 392.873L224.082 394.49C223.033 395.633 221.741 396.51 220.206 397.122C218.695 397.711 217.045 398 215.268 398Z" fill="white"/>
<path d="M256.214 397.815L250.723 390.102C250.1 390.171 249.477 390.194 248.831 390.194H242.37V397.815H239.832V373.75H248.831C251.877 373.75 254.276 374.489 256.03 375.968C257.783 377.423 258.66 379.432 258.66 382.018C258.66 383.901 258.176 385.483 257.23 386.776C256.272 388.069 254.899 388.993 253.123 389.547L259.029 397.815H256.214ZM248.739 388.023C251.138 388.023 252.949 387.503 254.184 386.453C255.441 385.413 256.076 383.935 256.076 382.018C256.076 380.078 255.441 378.589 254.184 377.538C252.949 376.499 251.138 375.968 248.739 375.968H242.37V388.023H248.739Z" fill="white"/>
<path d="M291.945 395.598V397.815H274.963V373.75H291.437V375.968H277.501V384.513H289.914V386.684H277.501V395.598H291.945Z" fill="white"/>
<path d="M323.283 391.395H309.9L307.039 397.815H304.363L315.392 373.75H317.884L328.867 397.815H326.19L323.283 391.395ZM322.36 389.316L316.592 376.383L310.823 389.316H322.36Z" fill="white"/>
<path d="M347.824 375.968H339.379V373.75H358.807V375.968H350.362V397.815H347.824V375.968Z" fill="white"/>
<path d="M373.178 373.75H375.716V397.815H373.178V373.75Z" fill="white"/>
<path d="M413.836 373.75L403.176 397.815H400.684L390.024 373.75H392.793L401.976 394.674L411.251 373.75H413.836Z" fill="white"/>
<path d="M445.108 395.598V397.815H428.126V373.75H444.6V375.968H430.664V384.513H443.078V386.684H430.664V395.598H445.108Z" fill="white"/>
<path d="M468.001 398C466.213 398 464.506 397.723 462.879 397.169C461.241 396.591 459.983 395.829 459.095 394.905L460.11 392.919C460.964 393.82 462.118 394.536 463.571 395.09C465.013 395.621 466.49 395.875 468.001 395.875C470.147 395.875 471.762 395.483 472.847 394.674C473.92 393.878 474.462 392.85 474.462 391.58C474.462 390.633 474.162 389.871 473.585 389.316C472.997 388.739 472.27 388.289 471.416 387.977C470.586 387.677 469.409 387.33 467.909 386.961C466.086 386.499 464.644 386.06 463.571 385.621C462.487 385.194 461.564 384.547 460.802 383.681C460.064 382.827 459.695 381.649 459.695 380.171C459.695 378.947 459.995 377.838 460.618 376.845C461.264 375.829 462.244 375.032 463.571 374.443C464.921 373.866 466.582 373.566 468.555 373.566C469.905 373.566 471.243 373.75 472.57 374.12C473.885 374.489 475.027 375.021 475.985 375.69L475.108 377.723C474.116 377.053 473.043 376.556 471.878 376.245C470.736 375.91 469.628 375.737 468.555 375.737C466.432 375.737 464.829 376.141 463.756 376.937C462.706 377.746 462.187 378.785 462.187 380.078C462.187 381.037 462.475 381.811 463.064 382.388C463.64 382.977 464.367 383.427 465.232 383.727C466.121 384.039 467.321 384.374 468.832 384.744C470.586 385.182 471.993 385.61 473.077 386.037C474.15 386.476 475.073 387.122 475.846 387.977C476.608 388.843 477 389.998 477 391.441C477 392.677 476.654 393.797 475.985 394.813C475.339 395.806 474.335 396.591 472.985 397.169C471.624 397.723 469.963 398 468.001 398Z" fill="white"/>
<path d="M105.214 102H152.33V103.755C147.311 103.755 143.666 105.268 141.393 108.282C139.143 111.307 137.724 116.215 137.147 123.016C136.559 129.829 136.271 138.998 136.271 150.545V274.796H158.421C161.213 274.796 164.847 274.726 169.312 274.565C173.8 274.38 178.657 273.999 183.894 273.41C189.121 272.833 194.324 271.932 199.492 270.731C204.661 269.507 209.425 267.902 213.798 265.927C218.159 263.93 221.654 261.447 224.273 258.491C226.88 255.535 228.196 251.955 228.196 247.729H229.903V276.551H105.214V274.796C110.22 274.796 113.855 273.295 116.104 270.269C118.377 267.255 119.808 262.313 120.396 255.442C120.973 248.583 121.273 239.438 121.273 228.006V150.545C121.273 138.998 120.973 129.829 120.396 123.016C119.808 116.215 118.377 111.307 116.104 108.282C113.855 105.268 110.22 103.755 105.214 103.755V102Z" fill="white"/>
<path d="M300.18 331.319C289.381 331.319 279.275 329.078 269.861 324.621C260.447 320.129 252.187 313.79 245.08 305.591C237.997 297.369 232.482 287.739 228.513 276.676C224.568 265.625 222.607 253.57 222.607 240.51C222.607 227.369 224.568 215.29 228.513 204.297C232.482 193.304 237.997 183.719 245.08 175.521C252.187 167.299 260.447 160.959 269.861 156.49C279.275 151.998 289.381 149.747 300.18 149.747C310.171 149.747 318.604 150.89 325.468 153.165C332.321 155.451 337.813 158.419 341.943 162.079C346.096 165.751 349.096 169.735 350.942 174.043C352.811 178.361 353.757 182.484 353.757 186.421C353.757 192.495 352.557 197.969 350.157 202.865C347.781 207.738 344.735 212.149 341.02 216.121C337.294 220.071 333.313 223.766 329.068 227.207C324.822 230.625 320.831 233.904 317.116 237.045C313.389 240.186 310.332 243.327 307.933 246.468C305.556 249.609 304.379 252.923 304.379 256.399C304.379 259.078 304.806 261.272 305.671 262.958C306.56 264.655 307.863 266.26 309.594 267.761C306.456 268.477 303.745 268.016 301.472 266.376C299.222 264.748 297.48 262.53 296.257 259.724C295.057 256.93 294.458 254.205 294.458 251.549C294.458 246.41 295.634 241.78 298.011 237.646C300.411 233.523 303.456 229.724 307.148 226.237C310.863 222.727 314.785 219.401 318.916 216.26C323.069 213.119 327.003 209.955 330.729 206.745C334.444 203.546 337.49 200.174 339.866 196.629C342.266 193.096 343.466 189.227 343.466 185.036C343.466 174.666 339.878 166.548 332.714 160.694C325.572 154.816 314.728 151.871 300.18 151.871C291.135 151.871 282.829 154.089 275.26 158.523C267.692 162.934 261.139 169.123 255.602 177.091C250.087 185.07 245.83 194.447 242.819 205.221C239.796 215.971 238.297 227.738 238.297 240.51C238.297 253.2 239.912 264.967 243.142 275.798C246.395 286.607 250.872 296.007 256.571 303.974C262.293 311.954 268.892 318.154 276.368 322.589C283.867 327 291.804 329.194 300.18 329.194C307.99 329.194 314.682 328.201 320.254 326.238C325.815 324.275 330.522 321.838 334.375 318.94C338.217 316.018 341.262 313.108 343.512 310.21C345.785 307.288 347.411 304.84 348.404 302.866C349.384 300.868 349.88 299.863 349.88 299.863H351.818V323.282C344.827 325.499 337.259 327.392 329.114 328.963C320.992 330.533 311.347 331.319 300.18 331.319Z" fill="white"/>
</g>
<defs>
<clipPath id="clip0_24_3">
<rect width="500" height="500" fill="white"/>
</clipPath>
</defs>
</svg>
