<svg width="500" height="500" viewBox="0 0 500 500" fill="none" xmlns="http://www.w3.org/2000/svg">
<g clip-path="url(#clip0_24_74)">
<path d="M550 -50H-50V550H550V-50Z" fill="white"/>
<path d="M550 -50H-50V550H550V-50Z" fill="white"/>
<path d="M124.164 294.684C124.502 294.755 124.756 294.911 124.953 295.137C125.178 295.363 125.248 295.646 125.178 295.986C125.178 296.283 125.037 296.509 124.784 296.665C124.558 296.848 124.249 296.962 123.883 297.004C123.432 297.032 122.954 297.018 122.475 296.947C119.238 296.41 116.014 296.056 112.791 295.873C109.553 295.674 106.33 295.547 103.106 295.476C102.881 295.476 102.656 295.476 102.431 295.476C100.136 295.392 97.8699 295.335 95.6177 295.307C93.0981 295.222 90.5643 295.151 88.0165 295.08C84.5256 294.967 81.0066 294.967 77.4875 295.08C73.9544 295.222 70.4071 295.434 66.8458 295.703C66.6206 295.703 66.3532 295.717 66.0576 295.759C65.8324 295.788 65.6212 295.816 65.4382 295.816C64.0447 295.844 62.9749 296.495 62.2288 297.739C61.7362 298.532 61.159 299.239 60.4834 299.889C60.3708 300.031 60.2582 300.144 60.1456 300.229C58.3016 302.265 56.2183 303.623 53.8957 304.302C51.6013 305.009 49.1238 305.179 46.4634 304.811C45.5203 304.698 44.6194 304.387 43.7608 303.906C42.2969 303.072 41.5227 302.124 41.4523 301.077C41.3678 300.059 41.9872 299.012 43.3104 297.966C44.915 296.905 46.6887 296.17 48.603 295.759C50.8834 295.109 53.22 294.571 55.5848 294.119C55.8101 294.119 55.9931 294.09 56.1479 294.062C57.274 293.907 58.0763 293.737 58.569 293.553C59.0898 293.397 59.498 293.114 59.8077 292.704C60.1033 292.28 60.4271 291.629 60.7649 290.724C60.9057 290.413 61.0605 290.059 61.2153 289.649C62.4118 286.962 63.3831 284.232 64.1432 281.446C64.8892 278.688 65.5508 275.902 66.1139 273.073C69.1544 258.293 70.9843 243.371 71.6318 228.322C71.7725 224.475 71.7585 220.628 71.5755 216.781C71.3784 212.934 70.9561 209.115 70.2805 205.297C70.013 203.712 69.5626 202.227 68.9291 200.827C68.2816 199.554 67.5356 198.72 66.6769 198.338C65.8464 197.97 64.7344 197.998 63.3549 198.451C60.5678 199.328 58.006 200.601 55.6411 202.298C51.1367 205.551 47.3925 209.342 44.4365 213.67C41.5086 217.969 39.3972 222.863 38.1303 228.322C37.525 230.699 37.3983 233.075 37.7362 235.451C38.0318 237.374 38.6089 239.072 39.4816 240.543C40.3825 241.985 41.762 243.088 43.6482 243.88C43.9016 243.994 44.1549 244.163 44.3801 244.39C44.4505 244.432 44.5068 244.474 44.5491 244.503C44.7321 244.616 44.7884 244.814 44.718 245.069C44.6757 245.295 44.5631 245.507 44.3801 245.691C43.7326 246.143 43.057 246.341 42.3532 246.257C40.5796 246.073 39.0593 245.394 37.7925 244.22C35.9062 242.523 34.5971 240.627 33.8511 238.506C33.1332 236.356 32.8658 234.036 33.0628 231.547C33.2881 228.308 33.9919 225.154 35.2024 222.099C37.1872 216.894 39.8476 212.298 43.1977 208.295C46.576 204.264 50.6863 200.855 55.5285 198.055C57.1051 197.15 58.7379 196.414 60.4271 195.849C62.1162 195.283 63.8617 195 65.6634 195C67.8734 195 69.6752 195.481 71.0687 196.414C72.4482 197.362 73.518 198.833 74.2781 200.827C74.9538 202.751 75.4605 204.731 75.7983 206.768C76.3895 210.926 76.7555 215.112 76.8681 219.327C76.9808 225.748 76.7696 232.113 76.2488 238.449C75.7561 244.786 75.0242 251.122 74.0529 257.458C73.4476 261.39 72.786 265.308 72.0822 269.226C71.4066 273.101 70.5761 276.991 69.6048 280.88C68.6195 284.345 67.4371 287.754 66.0576 291.12C65.5649 292.209 65.945 292.718 67.1837 292.648C68.2675 292.605 69.3514 292.535 70.4494 292.421C72.0259 292.308 73.5743 292.223 75.1227 292.195C77.9379 292.153 80.7813 292.153 83.681 292.195C84.8775 292.195 86.074 292.195 87.2846 292.195C98.7989 292.223 110.285 292.874 121.743 294.119C122.56 294.232 123.376 294.416 124.164 294.684ZM55.0781 299.154C55.1063 299.111 55.2048 298.998 55.3596 298.814C55.5004 298.616 55.6411 298.418 55.7538 298.192C55.8945 297.994 55.9368 297.824 55.8664 297.683C55.8241 297.527 55.6693 297.485 55.4159 297.57C52.6711 297.824 50.081 298.588 47.6458 299.833C47.2235 300.059 46.9843 300.257 46.9139 300.455C46.8294 300.681 46.8716 300.879 47.0265 301.077C47.7021 301.869 48.5608 302.181 49.6165 302.039C50.6582 301.884 51.6998 301.53 52.7133 300.964C53.7268 300.398 54.515 299.79 55.0781 299.154Z" fill="black"/>
<path d="M93.4929 260.344C93.4507 260.344 93.4085 260.344 93.3803 260.344C93.3803 260.344 93.3944 260.344 93.4366 260.344C93.4366 260.344 93.4507 260.344 93.4929 260.344ZM113.2 257.515C113.383 257.374 113.706 257.218 114.157 257.062C114.607 256.879 115.03 256.765 115.452 256.723C115.86 256.695 116.156 256.836 116.353 257.176C116.465 257.444 116.479 257.685 116.409 257.911C116.367 258.137 116.254 258.335 116.071 258.477C115.058 259.608 113.453 260.768 111.285 261.928C109.104 263.102 106.851 264.134 104.529 265.039C102.192 265.916 100.264 266.482 98.7293 266.737C96.9557 267.048 95.1821 267.119 93.3803 266.963C91.1281 266.666 89.453 265.747 88.3692 264.191C87.2853 262.607 86.8349 260.839 87.0179 258.873C87.3557 256.695 88.341 254.955 90.002 253.668C91.6912 252.353 93.6196 251.858 95.8014 252.197C97.1105 252.395 98.2929 252.876 99.3487 253.668C100.503 254.616 101.038 255.705 100.925 256.949C100.813 258.166 100.081 259.085 98.7293 259.721C98.0536 260.061 97.2794 260.287 96.4208 260.4C95.5903 260.485 94.619 260.457 93.4929 260.344C93.4929 260.344 93.4507 260.344 93.3803 260.344C93.3381 260.344 93.2396 260.344 93.0988 260.344C92.9862 260.344 92.8736 260.344 92.761 260.344C92.4231 260.344 92.1979 260.443 92.0853 260.627C91.9727 260.825 91.9727 261.065 92.0853 261.362C92.6765 262.918 93.8871 263.724 95.6888 263.795C97.5187 263.88 99.588 263.54 101.882 262.776C104.163 261.984 106.345 261.079 108.414 260.061C110.469 259.043 112.074 258.194 113.2 257.515ZM93.4366 255.705C93.127 255.903 92.9299 256.143 92.8173 256.44C92.7328 256.709 92.6765 256.935 92.6484 257.119C92.6484 257.317 92.6765 257.43 92.761 257.458C92.8314 257.501 93.0566 257.557 93.4366 257.628C93.8448 257.671 94.2812 257.671 94.7316 257.628C95.2102 257.6 95.6044 257.501 95.9141 257.345C96.2519 257.161 96.3645 256.864 96.2519 256.44C96.0548 255.874 95.6607 255.521 95.0695 255.365C94.4642 255.224 93.9152 255.337 93.4366 255.705Z" fill="black"/>
<path d="M119.5 260.344C119.457 260.344 119.415 260.344 119.387 260.344C119.387 260.344 119.401 260.344 119.443 260.344C119.443 260.344 119.457 260.344 119.5 260.344ZM139.206 257.515C139.389 257.374 139.713 257.218 140.164 257.062C140.614 256.879 141.036 256.765 141.459 256.723C141.867 256.695 142.162 256.836 142.359 257.176C142.472 257.444 142.486 257.685 142.416 257.911C142.373 258.137 142.261 258.335 142.078 258.477C141.064 259.608 139.46 260.768 137.292 261.928C135.11 263.102 132.858 264.134 130.535 265.039C128.199 265.916 126.27 266.482 124.736 266.737C122.962 267.048 121.189 267.119 119.387 266.963C117.135 266.666 115.46 265.747 114.376 264.191C113.292 262.607 112.841 260.839 113.024 258.873C113.362 256.695 114.348 254.955 116.009 253.668C117.698 252.353 119.626 251.858 121.808 252.197C123.117 252.395 124.3 252.876 125.355 253.668C126.51 254.616 127.044 255.705 126.932 256.949C126.819 258.166 126.087 259.085 124.736 259.721C124.06 260.061 123.286 260.287 122.427 260.4C121.597 260.485 120.626 260.457 119.5 260.344C119.5 260.344 119.457 260.344 119.387 260.344C119.345 260.344 119.246 260.344 119.105 260.344C118.993 260.344 118.88 260.344 118.768 260.344C118.43 260.344 118.205 260.443 118.092 260.627C117.979 260.825 117.979 261.065 118.092 261.362C118.683 262.918 119.894 263.724 121.695 263.795C123.525 263.88 125.595 263.54 127.889 262.776C130.169 261.984 132.351 261.079 134.42 260.061C136.476 259.043 138.08 258.194 139.206 257.515ZM119.443 255.705C119.134 255.903 118.937 256.143 118.824 256.44C118.739 256.709 118.683 256.935 118.655 257.119C118.655 257.317 118.683 257.43 118.768 257.458C118.838 257.501 119.063 257.557 119.443 257.628C119.851 257.671 120.288 257.671 120.738 257.628C121.217 257.6 121.611 257.501 121.921 257.345C122.259 257.161 122.371 256.864 122.259 256.44C122.061 255.874 121.667 255.521 121.076 255.365C120.471 255.224 119.922 255.337 119.443 255.705Z" fill="black"/>
<path d="M163.411 257.798C164.228 257.006 164.903 256.864 165.438 257.345C166.001 257.84 166.001 258.746 165.438 260.061C164.157 262.593 162.51 264.969 160.483 267.189C158.456 269.382 156.162 271.008 153.614 272.055C152.488 272.394 151.362 272.564 150.236 272.564C149.11 272.564 147.984 272.423 146.857 272.168C145.759 271.899 144.859 271.432 144.155 270.754C143.437 270.046 142.818 269.226 142.297 268.321C140.72 265.351 139.707 261.051 139.256 255.422C138.806 249.807 138.778 243.683 139.144 237.035C139.481 230.359 140.016 223.966 140.776 217.856C141.523 211.746 142.297 206.711 143.085 202.751C143.451 201.096 144.014 199.512 144.774 197.999C145.591 196.457 146.872 195.764 148.603 195.905C150.208 195.905 151.32 196.669 151.925 198.168C152.601 200.134 152.967 202.129 153.051 204.165C153.389 209.002 153.248 213.783 152.657 218.535C152.094 223.146 151.376 227.46 150.517 231.491C149.645 235.493 148.744 239.411 147.815 243.258C146.604 247.94 145.464 252.862 144.38 258.024C144.408 258.562 144.464 259.028 144.549 259.439C144.69 260.881 144.901 262.126 145.168 263.173C145.422 264.233 145.985 265.535 146.857 267.076C147.674 268.547 148.715 269.325 149.954 269.396C151.221 269.481 152.516 269.113 153.839 268.321C155.191 267.529 156.401 266.595 157.499 265.492C158.625 264.403 159.484 263.399 160.089 262.494C160.272 262.239 160.596 261.786 161.046 261.136C161.497 260.457 161.947 259.806 162.398 259.156C162.848 258.519 163.186 258.067 163.411 257.798ZM143.817 242.806C144.338 241.448 144.859 239.241 145.393 236.186C145.957 233.131 146.435 229.737 146.857 226.003C147.308 222.269 147.646 218.733 147.871 215.367C148.096 211.973 148.167 209.257 148.096 207.22C148.054 205.184 147.815 204.335 147.364 204.674C146.689 207.546 146.252 210.205 146.069 212.651C145.914 213.939 145.731 215.848 145.506 218.365C145.013 222.75 144.563 227.417 144.155 232.396C143.733 237.346 143.62 240.811 143.817 242.806Z" fill="black"/>
<path d="M188.771 257.176C188.996 257.218 189.137 257.289 189.221 257.402C189.292 257.487 189.362 257.628 189.446 257.854C189.517 258.123 189.418 258.42 189.165 258.76C188.94 259.099 188.728 259.368 188.545 259.552C186.997 261.023 185.195 261.9 183.14 262.154C181.93 262.352 180.733 262.409 179.537 262.324C178.368 262.211 177.228 261.914 176.102 261.419C175.272 261.009 174.497 261.136 173.794 261.815C172.287 263.173 170.725 264.474 169.12 265.718C168.29 266.327 167.431 266.836 166.53 267.246C165.629 267.67 164.63 267.911 163.546 267.981C160.393 267.911 159.154 266.369 159.83 263.342C159.872 263.229 159.914 263.144 159.943 263.059C160.843 260.613 162.054 258.406 163.546 256.44C165.038 254.446 166.924 252.791 169.177 251.462C170.669 250.599 172.287 250.259 174.019 250.443C174.469 250.556 174.892 250.726 175.314 250.952C175.835 251.221 176.046 251.617 175.933 252.14C175.891 252.338 175.821 252.48 175.708 252.593C175.595 252.706 175.455 252.819 175.314 252.933C175.229 253.046 175.145 253.131 175.032 253.159C174.92 253.201 174.779 253.215 174.638 253.215C173.399 253.258 172.33 253.611 171.429 254.29C170.556 254.969 169.754 255.747 169.008 256.61C168.177 257.557 167.403 258.59 166.699 259.721C166.023 260.825 165.46 262.14 165.01 263.682C166.657 262.706 167.952 261.744 168.895 260.796C169.078 260.613 169.289 260.429 169.514 260.231C169.655 260.089 169.824 259.934 170.021 259.778C170.838 259.028 171.71 258.35 172.611 257.741C173.625 257.176 174.638 256.893 175.652 256.893C176.665 256.893 177.65 257.317 178.636 258.137C179.945 259.311 181.226 259.764 182.465 259.495C183.703 259.241 184.843 258.802 185.899 258.194C186.983 257.515 187.94 257.176 188.771 257.176Z" fill="black"/>
<path d="M287.575 259.099C287.124 259.707 286.618 260.273 286.055 260.796C285.787 261.136 285.492 261.475 285.154 261.815C280.227 267.401 275.075 272.748 269.67 277.882C264.743 282.521 259.479 286.679 253.848 290.385C250.878 292.308 247.795 293.907 244.614 295.194C241.419 296.509 238.083 297.457 234.592 298.022C231.129 298.616 227.68 298.73 224.232 298.362C219.08 297.64 215.124 295.901 212.351 293.157C209.564 290.399 207.72 286.99 206.777 282.917C205.848 278.844 205.567 274.516 205.933 269.961C206.27 265.365 207.045 260.909 208.241 256.61C209.395 252.282 210.69 248.463 212.126 245.182C215.054 238.478 218.517 232.113 222.543 226.116C226.554 220.091 231.157 214.448 236.337 209.2C237.083 208.451 237.379 207.956 237.238 207.729C237.126 207.503 236.731 207.319 236.056 207.164C235.718 207.135 235.352 207.036 234.986 206.881C233.255 206.357 231.566 205.806 229.919 205.24C227.103 204.264 224.288 203.359 221.473 202.524C218.686 201.704 215.899 201.025 213.083 200.488C210.522 200.035 208.002 199.922 205.482 200.148C203.652 200.233 201.963 200.742 200.415 201.676C199.331 202.326 198.416 203.076 197.656 203.939C196.91 204.816 196.473 205.919 196.361 207.277C196.248 208.564 195.375 209.059 193.714 208.748C192.631 208.606 192.082 207.941 192.082 206.768C192.082 205.947 192.251 205.183 192.588 204.505C192.926 203.826 193.363 203.175 193.883 202.524C195.882 200.191 198.388 198.677 201.428 197.998C205.187 197.178 209.001 197.023 212.858 197.546C215.673 197.97 218.432 198.55 221.135 199.3C223.838 200.063 226.54 200.87 229.243 201.732C229.468 201.817 229.693 201.874 229.919 201.902C230.735 202.213 231.566 202.496 232.396 202.751C234.451 203.316 236.478 203.981 238.477 204.731C239.223 205.042 239.899 205.113 240.504 204.957C241.137 204.816 241.771 204.49 242.418 203.995C244.924 201.93 247.655 200.177 250.583 198.734C254.327 196.81 258.353 195.707 262.632 195.396C263.941 195.283 265.236 195.325 266.517 195.509C267.826 195.707 269.079 196.075 270.289 196.641C272.232 197.631 273.358 198.96 273.668 200.657C273.963 202.326 273.4 203.967 271.978 205.579C270.627 207.022 269.022 208.055 267.193 208.691C264.968 209.639 262.66 210.19 260.267 210.332C257.86 210.487 255.453 210.544 253.06 210.501C250.653 210.431 248.288 210.162 245.966 209.709C245.768 209.681 245.6 209.639 245.459 209.596C244.586 209.37 243.798 209.285 243.094 209.313C242.376 209.313 241.658 209.681 240.954 210.388C234.761 216.541 229.327 223.429 224.682 231.038C220.023 238.661 216.307 246.582 213.534 254.799C212.52 257.713 211.704 260.952 211.113 264.53C210.507 268.08 210.282 271.616 210.437 275.166C210.62 278.745 211.366 282.082 212.689 285.18C214.041 288.263 216.152 290.852 219.052 292.931C221.487 294.585 224.175 295.476 227.103 295.59C231.495 295.703 235.732 294.996 239.828 293.496C244.22 291.827 248.344 289.663 252.215 286.99C255.594 284.642 258.803 282.139 261.844 279.466C264.912 276.779 267.939 274.006 270.909 271.149C272.035 270.103 273.921 268.321 276.595 265.831C279.256 263.342 281.691 261.164 283.915 259.269C284.281 258.929 284.647 258.59 284.985 258.25C285.661 257.614 286.252 257.119 286.787 256.779C287.35 256.412 287.871 256.256 288.363 256.327C289.292 256.412 289.039 257.331 287.575 259.099ZM262.407 198.281C259.324 198.734 256.41 199.667 253.679 201.053C250.977 202.454 248.302 204.193 245.684 206.258C248.007 207.05 250.442 207.56 253.004 207.786C255.551 207.984 257.902 207.927 260.042 207.616C261.956 207.319 263.772 206.739 265.503 205.862C266.629 205.297 267.558 204.547 268.319 203.599C268.91 202.666 269.107 201.761 268.882 200.884C268.656 200.021 268.037 199.356 267.024 198.904C265.517 198.267 263.983 198.055 262.407 198.281Z" fill="black"/>
<path d="M311.204 258.081C311.88 257.374 312.471 257.091 313.006 257.232C313.569 257.388 313.907 257.784 314.019 258.42C314.16 259.071 313.977 259.778 313.456 260.57C312.443 262.083 310.993 263.724 309.121 265.492C307.235 267.274 305.208 268.816 303.04 270.131C300.858 271.447 298.817 272.168 296.903 272.281C292.961 272.465 291.117 270.57 291.385 266.567C291.413 266.044 291.511 265.351 291.666 264.474C291.849 263.611 291.976 262.776 292.06 261.984C292.173 261.164 292.131 260.598 291.948 260.287C291.68 260.061 291.385 259.948 291.047 259.948C290.709 259.948 290.343 259.99 289.977 260.061C289.555 260.146 289.189 260.16 288.851 260.117C286.894 259.891 285.895 258.901 285.811 257.119C285.782 254.672 286.233 252.338 287.218 250.104C287.514 249.397 288.077 248.916 288.907 248.689C289.724 248.463 290.484 248.562 291.16 248.972C291.61 249.283 291.807 249.679 291.779 250.16C291.694 250.839 291.582 251.504 291.441 252.14C291.357 252.452 291.286 252.749 291.216 253.046C290.878 254.785 290.878 255.691 291.216 255.761C291.582 255.804 292.398 255.337 293.637 254.347C294.566 253.668 295.579 253.385 296.677 253.498C298.17 253.654 298.775 254.488 298.479 255.988C298.254 257.048 298.001 258.109 297.747 259.156C297.184 261.39 296.748 263.611 296.452 265.832C296.34 267.387 296.593 268.293 297.24 268.547C297.916 268.773 298.789 268.604 299.887 268.038C300.971 267.472 302.111 266.723 303.321 265.775C304.56 264.841 305.63 263.908 306.531 263.003C307.46 262.069 308.107 261.39 308.445 260.966C308.628 260.782 308.896 260.499 309.233 260.117C309.571 259.75 309.923 259.368 310.303 258.986C310.711 258.576 311.007 258.279 311.204 258.081Z" fill="black"/>
<path d="M316.463 260.344C316.42 260.344 316.378 260.344 316.35 260.344C316.35 260.344 316.364 260.344 316.406 260.344C316.406 260.344 316.42 260.344 316.463 260.344ZM336.169 257.515C336.352 257.374 336.676 257.218 337.127 257.062C337.577 256.879 337.999 256.765 338.422 256.723C338.83 256.695 339.125 256.836 339.323 257.176C339.435 257.444 339.449 257.685 339.379 257.911C339.337 258.137 339.224 258.335 339.041 258.477C338.028 259.608 336.423 260.768 334.255 261.928C332.073 263.102 329.821 264.134 327.499 265.039C325.162 265.916 323.233 266.482 321.699 266.737C319.925 267.048 318.152 267.119 316.35 266.963C314.098 266.666 312.423 265.747 311.339 264.191C310.255 262.607 309.805 260.839 309.988 258.873C310.325 256.695 311.311 254.955 312.972 253.668C314.661 252.353 316.589 251.858 318.771 252.197C320.08 252.395 321.263 252.876 322.318 253.668C323.473 254.616 324.008 255.705 323.895 256.949C323.782 258.166 323.05 259.085 321.699 259.721C321.023 260.061 320.249 260.287 319.391 260.4C318.56 260.485 317.589 260.457 316.463 260.344C316.463 260.344 316.42 260.344 316.35 260.344C316.308 260.344 316.209 260.344 316.069 260.344C315.956 260.344 315.843 260.344 315.731 260.344C315.393 260.344 315.168 260.443 315.055 260.627C314.942 260.825 314.942 261.065 315.055 261.362C315.646 262.918 316.857 263.724 318.659 263.795C320.489 263.88 322.558 263.54 324.852 262.776C327.133 261.984 329.314 261.079 331.384 260.061C333.439 259.043 335.043 258.194 336.169 257.515ZM316.406 255.705C316.097 255.903 315.9 256.143 315.787 256.44C315.703 256.709 315.646 256.935 315.618 257.119C315.618 257.317 315.646 257.43 315.731 257.458C315.801 257.501 316.026 257.557 316.406 257.628C316.815 257.671 317.251 257.671 317.701 257.628C318.18 257.6 318.574 257.501 318.884 257.345C319.222 257.161 319.334 256.864 319.222 256.44C319.025 255.874 318.63 255.521 318.039 255.365C317.434 255.224 316.885 255.337 316.406 255.705Z" fill="black"/>
<path d="M362.232 257.176C362.458 257.218 362.598 257.289 362.683 257.402C362.753 257.487 362.824 257.628 362.908 257.854C362.978 258.123 362.88 258.42 362.626 258.76C362.401 259.099 362.19 259.368 362.007 259.552C360.459 261.023 358.657 261.9 356.602 262.154C355.391 262.352 354.195 262.409 352.998 262.324C351.83 262.211 350.69 261.914 349.564 261.419C348.733 261.009 347.959 261.136 347.255 261.815C345.749 263.173 344.187 264.474 342.582 265.718C341.751 266.327 340.893 266.836 339.992 267.246C339.091 267.67 338.092 267.911 337.008 267.981C333.855 267.911 332.616 266.369 333.292 263.342C333.334 263.229 333.376 263.144 333.404 263.059C334.305 260.613 335.516 258.406 337.008 256.44C338.5 254.446 340.386 252.791 342.638 251.462C344.13 250.599 345.749 250.259 347.48 250.443C347.931 250.556 348.353 250.726 348.775 250.952C349.296 251.221 349.507 251.617 349.395 252.14C349.353 252.338 349.282 252.48 349.17 252.593C349.057 252.706 348.916 252.819 348.775 252.933C348.691 253.046 348.607 253.131 348.494 253.159C348.381 253.201 348.241 253.215 348.1 253.215C346.861 253.258 345.791 253.611 344.89 254.29C344.018 254.969 343.215 255.747 342.469 256.61C341.639 257.557 340.865 258.59 340.161 259.721C339.485 260.825 338.922 262.14 338.472 263.682C340.119 262.706 341.414 261.744 342.357 260.796C342.54 260.613 342.751 260.429 342.976 260.231C343.117 260.089 343.286 259.934 343.483 259.778C344.299 259.028 345.172 258.35 346.073 257.741C347.086 257.176 348.1 256.893 349.113 256.893C350.127 256.893 351.112 257.317 352.097 258.137C353.407 259.311 354.687 259.764 355.926 259.495C357.165 259.241 358.305 258.802 359.361 258.194C360.445 257.515 361.402 257.176 362.232 257.176Z" fill="black"/>
<path d="M382.581 257.458C382.989 257.119 383.285 257.006 383.482 257.119C383.707 257.204 383.848 257.402 383.932 257.741C384.045 258.052 384.101 258.349 384.101 258.646C384.059 259.212 383.946 259.764 383.763 260.287C383.566 260.782 383.439 261.122 383.369 261.305C383.285 261.348 383.256 261.362 383.256 261.362C382.693 262.805 381.793 264.233 380.554 265.662C379.343 267.062 377.922 268.193 376.275 269.056C374.614 269.933 372.868 270.301 371.038 270.188C368.406 269.891 366.323 268.886 364.788 267.189C363.24 265.464 362.086 263.399 361.298 261.023C360.509 258.646 359.988 256.299 359.721 253.951C359.017 248.223 358.806 242.452 359.102 236.639C359.144 235.253 359.186 233.838 359.214 232.396C359.214 231.915 359.214 231.42 359.214 230.925C359.214 230.02 358.792 229.567 357.919 229.567C357.018 229.567 356.117 229.553 355.217 229.511C354.203 229.511 353.19 229.511 352.176 229.511C352.035 229.511 351.88 229.511 351.726 229.511C351.022 229.595 350.36 229.454 349.755 229.114C349.459 229.001 349.22 228.832 349.023 228.605C348.84 228.379 348.741 228.096 348.741 227.757C348.784 227.417 348.91 227.163 349.136 226.965C349.361 226.781 349.642 226.682 349.98 226.682C351.191 226.653 352.387 226.625 353.584 226.625C354.344 226.625 355.076 226.625 355.78 226.625C356.723 226.625 357.666 226.597 358.595 226.512C359.13 226.484 359.468 226.158 359.608 225.55C359.693 224.871 359.749 224.178 359.777 223.457C359.932 221.194 360.101 218.917 360.284 216.611C360.425 215.027 360.566 213.486 360.678 211.972C360.678 211.902 360.678 211.845 360.678 211.803C360.678 211.506 360.692 211.209 360.734 210.897C361.072 209.582 361.945 208.96 363.381 209.03C364.62 209.115 365.309 209.794 365.464 211.067C365.492 211.902 365.492 212.75 365.464 213.613C365.464 213.952 365.464 214.32 365.464 214.688C365.464 214.688 365.436 214.688 365.408 214.688C365.323 215.636 365.267 216.597 365.239 217.573C365.084 219.723 364.971 221.901 364.901 224.079C364.817 225.253 364.915 225.989 365.183 226.286C365.478 226.554 366.252 226.668 367.491 226.625C369.814 226.668 372.122 226.682 374.417 226.682C376.063 226.682 377.71 226.71 379.371 226.738C379.554 226.738 379.723 226.738 379.878 226.738C380.286 226.71 380.681 226.724 381.061 226.795C381.427 226.88 381.807 227.007 382.187 227.191C382.299 227.304 382.384 227.446 382.468 227.587C382.581 227.7 382.665 227.856 382.75 228.04C382.75 228.266 382.665 228.464 382.524 228.605C382.412 228.718 382.299 228.817 382.187 228.888C381.427 229.312 380.638 229.482 379.822 229.397C379.709 229.397 379.554 229.397 379.371 229.397C376.894 229.397 374.431 229.426 371.995 229.454C370.644 229.496 369.265 229.511 367.885 229.511C367.773 229.511 367.674 229.511 367.604 229.511C366.998 229.511 366.365 229.539 365.689 229.567C365.014 229.652 364.62 230.02 364.507 230.699C364.422 231.08 364.394 231.434 364.394 231.773C364.239 235.437 364.169 239.114 364.169 242.806C364.197 246.469 364.451 250.104 364.901 253.724C365.267 256.638 366.027 259.41 367.153 262.041C367.787 263.512 368.533 264.672 369.405 265.492C370.306 266.326 371.32 266.666 372.446 266.51C374.501 266.171 376.106 265.435 377.232 264.304C378.358 263.172 379.315 261.956 380.103 260.627C380.849 259.354 381.68 258.293 382.581 257.458Z" fill="black"/>
<path d="M401.354 257.232C401.607 257.388 401.72 257.614 401.691 257.911C401.691 258.222 401.593 258.505 401.41 258.76C400.129 260.655 398.764 262.324 397.3 263.795C395.836 265.266 394.217 266.383 392.457 267.133C390.726 267.854 388.713 268.038 386.433 267.698C384.927 267.472 383.786 266.963 382.998 266.171C382.238 265.379 381.675 264.247 381.309 262.776C380.676 260.513 380.521 258.18 380.859 255.761C381.154 254.375 382.013 253.64 383.449 253.555C384.758 253.555 385.476 254.149 385.588 255.308C385.616 256.299 385.616 257.26 385.588 258.194C385.588 258.307 385.588 258.42 385.588 258.533C385.504 261.136 385.926 262.918 386.827 263.851C387.728 264.799 388.91 265.039 390.374 264.587C391.838 264.134 393.386 263.102 395.047 261.475C395.273 261.291 395.526 261.023 395.836 260.683C396.131 260.315 396.469 259.933 396.849 259.552C397.37 259.028 397.806 258.576 398.144 258.194C399.186 257.147 400.256 256.822 401.354 257.232ZM383.111 249.425C381.942 249.354 381.281 248.732 381.14 247.558C380.985 246.653 381.112 245.79 381.534 244.955C381.9 244.248 382.505 243.753 383.336 243.484C384.195 243.23 384.997 243.301 385.757 243.711C386.053 243.866 386.264 244.078 386.376 244.333C386.489 244.602 386.517 244.828 386.489 245.012C386.447 247.996 385.321 249.467 383.111 249.425Z" fill="black"/>
<path d="M413.033 252.254C413.371 252.367 413.624 252.536 413.821 252.763C414.004 252.961 414.074 253.215 414.046 253.555C413.891 254.389 413.68 255.195 413.427 255.988C412.934 257.656 412.301 259.269 411.512 260.853C410.752 262.409 409.781 263.837 408.585 265.153C408.205 265.577 407.81 265.973 407.402 266.341C407.022 266.68 406.572 266.935 406.051 267.076C404.812 267.458 403.63 267.515 402.504 267.246C401.406 266.949 400.505 266.044 399.801 264.53C398.478 261.673 397.704 258.675 397.436 255.535C397.324 254.403 397.704 253.725 398.562 253.498C399.266 253.314 399.928 253.314 400.533 253.498C401.124 253.654 401.518 253.979 401.715 254.46C402.053 255.337 402.293 256.214 402.447 257.119C402.518 257.388 402.588 257.628 402.673 257.854C402.743 258.279 402.813 258.675 402.898 259.043C403.151 260.146 403.419 261.051 403.686 261.758C403.939 262.437 404.32 262.72 404.812 262.607C405.291 262.465 405.952 261.645 406.783 260.174C407.979 258.109 408.993 255.931 409.823 253.668C410.457 252.239 411.527 251.773 413.033 252.254Z" fill="black"/>
<path d="M420.996 260.344C420.953 260.344 420.911 260.344 420.883 260.344C420.883 260.344 420.897 260.344 420.939 260.344C420.939 260.344 420.953 260.344 420.996 260.344ZM440.702 257.515C440.885 257.374 441.209 257.218 441.66 257.062C442.11 256.879 442.532 256.765 442.955 256.723C443.363 256.695 443.658 256.836 443.856 257.176C443.968 257.444 443.982 257.685 443.912 257.911C443.87 258.137 443.757 258.335 443.574 258.477C442.561 259.608 440.956 260.768 438.788 261.928C436.606 263.102 434.354 264.134 432.031 265.039C429.695 265.916 427.766 266.482 426.232 266.737C424.458 267.048 422.685 267.119 420.883 266.963C418.631 266.666 416.956 265.747 415.872 264.191C414.788 262.607 414.338 260.839 414.521 258.873C414.858 256.695 415.844 254.955 417.505 253.668C419.194 252.353 421.122 251.858 423.304 252.197C424.613 252.395 425.796 252.876 426.851 253.668C428.006 254.616 428.541 255.705 428.428 256.949C428.315 258.166 427.583 259.085 426.232 259.721C425.556 260.061 424.782 260.287 423.924 260.4C423.093 260.485 422.122 260.457 420.996 260.344C420.996 260.344 420.953 260.344 420.883 260.344C420.841 260.344 420.742 260.344 420.602 260.344C420.489 260.344 420.376 260.344 420.264 260.344C419.926 260.344 419.701 260.443 419.588 260.627C419.475 260.825 419.475 261.065 419.588 261.362C420.179 262.918 421.39 263.724 423.192 263.795C425.021 263.88 427.091 263.54 429.385 262.776C431.665 261.984 433.847 261.079 435.917 260.061C437.972 259.043 439.576 258.194 440.702 257.515ZM420.939 255.705C420.63 255.903 420.433 256.143 420.32 256.44C420.236 256.709 420.179 256.935 420.151 257.119C420.151 257.317 420.179 257.43 420.264 257.458C420.334 257.501 420.559 257.557 420.939 257.628C421.348 257.671 421.784 257.671 422.234 257.628C422.713 257.6 423.107 257.501 423.417 257.345C423.755 257.161 423.867 256.864 423.755 256.44C423.558 255.874 423.163 255.521 422.572 255.365C421.967 255.224 421.418 255.337 420.939 255.705Z" fill="black"/>
<path d="M465.808 257.232C466.512 257.388 466.906 257.784 466.991 258.42C467.061 259.071 466.737 259.707 466.033 260.344C465.315 260.994 464.626 261.574 463.95 262.098C462.289 263.455 460.53 264.912 458.657 266.454C457.151 267.67 455.786 269 454.547 270.471C453.646 271.447 452.971 272.564 452.52 273.808C452.027 275.421 451.197 276.878 450.043 278.165C449.367 278.914 448.593 279.367 447.734 279.523C446.904 279.706 446.045 279.664 445.144 279.409C444.694 279.296 444.356 279.042 444.131 278.674C443.905 278.334 443.849 277.938 443.962 277.486C444.103 276.807 444.37 276.142 444.75 275.506C445.313 274.714 445.89 273.936 446.496 273.186C446.524 273.101 446.58 273.031 446.664 272.96C448.832 270.244 448.973 267.472 447.059 264.643C446.608 264.049 446.101 263.441 445.538 262.833C445.341 262.649 445.158 262.437 444.975 262.211C444.637 261.801 444.271 261.405 443.905 261.023C443.188 260.315 442.512 259.538 441.879 258.703C440.006 256.072 440.119 253.555 442.216 251.179C444.046 249.001 446.327 247.487 449.029 246.653C450.718 246.172 452.351 246.313 453.928 247.105C455.462 247.94 456.18 249.227 456.067 250.952C455.87 252.126 455.293 252.819 454.322 253.046C453.041 253.272 452.126 252.876 451.563 251.858C451.408 251.447 451.296 251.094 451.225 250.783C451.141 250.443 451.028 250.203 450.887 250.047C450.775 249.863 450.564 249.807 450.268 249.877C450.001 249.962 449.55 250.189 448.917 250.556C447.974 251.122 447.143 251.858 446.439 252.763C445.313 254.121 445.257 255.577 446.27 257.119C446.608 257.614 446.974 258.067 447.396 258.477C447.847 259.014 448.269 259.523 448.691 260.004C449.508 260.839 450.282 261.687 451 262.55C451.746 263.427 452.408 264.346 452.971 265.322C453.379 265.252 454.097 264.87 455.11 264.191C456.152 263.484 457.278 262.649 458.488 261.702C459.685 260.768 460.797 259.919 461.81 259.156C462.627 258.519 463.218 258.067 463.556 257.798C463.809 257.614 464.147 257.458 464.569 257.345C464.978 257.232 465.386 257.204 465.808 257.232Z" fill="black"/>
</g>
<defs>
<clipPath id="clip0_24_74">
<rect width="500" height="500" fill="white"/>
</clipPath>
</defs>
</svg>
