<svg width="206" height="134" viewBox="0 0 206 134" fill="none" xmlns="http://www.w3.org/2000/svg">
<path d="M0.166656 122.807H1.31249V132.661H7.39582V133.661H0.166656V122.807Z" fill="white"/>
<path d="M21.6161 132.661V133.661H13.9494V122.807H21.3869V123.807H15.0953V127.661H20.6994V128.64H15.0953V132.661H21.6161Z" fill="white"/>
<path d="M36.6389 132.661V133.661H28.9722V122.807H36.4097V123.807H30.118V127.661H35.7222V128.64H30.118V132.661H36.6389Z" fill="white"/>
<path d="M43.995 122.807H45.1408V132.661H51.2242V133.661H43.995V122.807Z" fill="white"/>
<path d="M64.5694 130.765H58.5278L57.2361 133.661H56.0278L61.0069 122.807H62.1319L67.0903 133.661H65.8819L64.5694 130.765ZM64.1528 129.828L61.5486 123.994L58.9444 129.828H64.1528Z" fill="white"/>
<path d="M86.9671 133.744C85.8942 133.744 84.9255 133.51 84.0505 133.036C83.1859 132.567 82.514 131.911 82.0296 131.078C81.5401 130.234 81.3005 129.286 81.3005 128.244C81.3005 127.192 81.5401 126.244 82.0296 125.411C82.514 124.567 83.1859 123.906 84.0505 123.432C84.9255 122.963 85.9046 122.723 86.988 122.723C87.7901 122.723 88.5349 122.859 89.2171 123.119C89.8942 123.385 90.4724 123.781 90.9463 124.307L90.2171 125.036C89.3682 124.177 88.3005 123.744 87.0088 123.744C86.1442 123.744 85.363 123.942 84.6546 124.328C83.9567 124.718 83.4099 125.26 83.0088 125.953C82.6182 126.635 82.4255 127.4 82.4255 128.244C82.4255 129.093 82.6182 129.859 83.0088 130.536C83.4099 131.218 83.9567 131.755 84.6546 132.14C85.363 132.531 86.1442 132.723 87.0088 132.723C88.3109 132.723 89.3838 132.296 90.2171 131.432L90.9463 132.161C90.4724 132.677 89.889 133.072 89.1963 133.348C88.514 133.614 87.7692 133.744 86.9671 133.744Z" fill="white"/>
<path d="M105.452 133.661L102.973 130.182C102.692 130.213 102.411 130.223 102.119 130.223H99.2024V133.661H98.0566V122.807H102.119C103.494 122.807 104.577 123.14 105.369 123.807C106.161 124.463 106.557 125.369 106.557 126.536C106.557 127.385 106.338 128.098 105.911 128.682C105.478 129.265 104.859 129.682 104.057 129.932L106.723 133.661H105.452ZM102.077 129.244C103.161 129.244 103.978 129.01 104.536 128.536C105.103 128.067 105.39 127.4 105.39 126.536C105.39 125.661 105.103 124.989 104.536 124.515C103.978 124.046 103.161 123.807 102.077 123.807H99.2024V129.244H102.077Z" fill="white"/>
<path d="M121.583 132.661V133.661H113.916V122.807H121.354V123.807H115.062V127.661H120.666V128.64H115.062V132.661H121.583Z" fill="white"/>
<path d="M135.731 130.765H129.689L128.397 133.661H127.189L132.168 122.807H133.293L138.252 133.661H137.043L135.731 130.765ZM135.314 129.828L132.71 123.994L130.106 129.828H135.314Z" fill="white"/>
<path d="M146.81 123.807H142.998V122.807H151.768V123.807H147.956V133.661H146.81V123.807Z" fill="white"/>
<path d="M158.256 122.807H159.402V133.661H158.256V122.807Z" fill="white"/>
<path d="M176.611 122.807L171.799 133.661H170.674L165.861 122.807H167.111L171.257 132.244L175.445 122.807H176.611Z" fill="white"/>
<path d="M190.729 132.661V133.661H183.063V122.807H190.5V123.807H184.209V127.661H189.813V128.64H184.209V132.661H190.729Z" fill="white"/>
<path d="M201.065 133.744C200.257 133.744 199.486 133.619 198.752 133.369C198.013 133.109 197.445 132.765 197.044 132.348L197.502 131.453C197.888 131.859 198.408 132.182 199.065 132.432C199.716 132.671 200.382 132.786 201.065 132.786C202.033 132.786 202.763 132.609 203.252 132.244C203.736 131.885 203.981 131.421 203.981 130.848C203.981 130.421 203.846 130.078 203.585 129.828C203.32 129.567 202.992 129.364 202.606 129.223C202.231 129.088 201.7 128.932 201.023 128.765C200.2 128.557 199.549 128.359 199.065 128.161C198.575 127.968 198.158 127.677 197.815 127.286C197.481 126.9 197.315 126.369 197.315 125.703C197.315 125.15 197.45 124.65 197.731 124.203C198.023 123.744 198.466 123.385 199.065 123.119C199.674 122.859 200.424 122.723 201.315 122.723C201.924 122.723 202.528 122.807 203.127 122.973C203.721 123.14 204.236 123.38 204.669 123.682L204.273 124.598C203.825 124.296 203.341 124.072 202.815 123.932C202.299 123.781 201.799 123.703 201.315 123.703C200.356 123.703 199.632 123.885 199.148 124.244C198.674 124.609 198.44 125.078 198.44 125.661C198.44 126.093 198.57 126.442 198.835 126.703C199.096 126.968 199.424 127.171 199.815 127.307C200.216 127.447 200.757 127.598 201.44 127.765C202.231 127.963 202.867 128.156 203.356 128.348C203.841 128.546 204.257 128.838 204.606 129.223C204.95 129.614 205.127 130.135 205.127 130.786C205.127 131.343 204.971 131.848 204.669 132.307C204.377 132.755 203.924 133.109 203.315 133.369C202.7 133.619 201.95 133.744 201.065 133.744Z" fill="white"/>
<path d="M37.2823 0.236885H58.5532V1.02855C56.2876 1.02855 54.6417 1.71084 53.6157 3.07022C52.6001 4.4348 51.9594 6.64834 51.699 9.71605C51.4334 12.789 51.3032 16.9244 51.3032 22.1327V78.1744H61.3032C62.5636 78.1744 64.2042 78.1431 66.2198 78.0702C68.2459 77.9869 70.4386 77.815 72.8032 77.5494C75.1626 77.289 77.5115 76.8827 79.8448 76.3411C82.1782 75.789 84.3292 75.065 86.3032 74.1744C88.2719 73.2733 89.8501 72.1536 91.0323 70.8202C92.2094 69.4869 92.8032 67.8723 92.8032 65.9661H93.574V78.9661H37.2823V78.1744C39.5428 78.1744 41.1834 77.4973 42.199 76.1327C43.2251 74.7733 43.8709 72.5442 44.1365 69.4452C44.3969 66.3515 44.5323 62.2265 44.5323 57.0702V22.1327C44.5323 16.9244 44.3969 12.789 44.1365 9.71605C43.8709 6.64834 43.2251 4.4348 42.199 3.07022C41.1834 1.71084 39.5428 1.02855 37.2823 1.02855V0.236885Z" fill="white"/>
<path d="M125.301 103.668C120.426 103.668 115.863 102.658 111.613 100.647C107.363 98.6214 103.634 95.7621 100.426 92.0642C97.2279 88.3558 94.7383 84.0121 92.9466 79.0225C91.1654 74.0381 90.28 68.6006 90.28 62.71C90.28 56.7829 91.1654 51.335 92.9466 46.3767C94.7383 41.4183 97.2279 37.0954 100.426 33.3975C103.634 29.6892 107.363 26.8298 111.613 24.8142C115.863 22.7881 120.426 21.7725 125.301 21.7725C129.811 21.7725 133.619 22.2881 136.717 23.3142C139.811 24.3454 142.29 25.6839 144.155 27.335C146.03 28.9912 147.384 30.7881 148.217 32.7308C149.061 34.6787 149.488 36.5381 149.488 38.3142C149.488 41.0537 148.947 43.5225 147.863 45.7308C146.79 47.9287 145.415 49.9183 143.738 51.71C142.056 53.4912 140.259 55.1579 138.342 56.71C136.426 58.2517 134.624 59.7308 132.947 61.1475C131.264 62.5642 129.884 63.9808 128.801 65.3975C127.728 66.8142 127.197 68.3089 127.197 69.8767C127.197 71.085 127.389 72.0746 127.78 72.835C128.181 73.6006 128.77 74.3246 129.551 75.0017C128.134 75.3246 126.91 75.1162 125.884 74.3767C124.869 73.6423 124.082 72.6423 123.53 71.3767C122.988 70.1162 122.717 68.8871 122.717 67.6892C122.717 65.3714 123.249 63.2829 124.322 61.4183C125.405 59.5589 126.78 57.8454 128.447 56.2725C130.124 54.6892 131.895 53.1892 133.759 51.7725C135.634 50.3558 137.41 48.9287 139.092 47.4808C140.77 46.0381 142.145 44.5173 143.217 42.9183C144.301 41.3246 144.842 39.5798 144.842 37.6892C144.842 33.0121 143.223 29.3506 139.988 26.71C136.764 24.0589 131.869 22.7308 125.301 22.7308C121.217 22.7308 117.467 23.7308 114.051 25.7308C110.634 27.7204 107.676 30.5121 105.176 34.1058C102.686 37.7048 100.764 41.9339 99.405 46.7933C98.0404 51.6423 97.3633 56.9496 97.3633 62.71C97.3633 68.4339 98.0925 73.7412 99.5508 78.6267C101.02 83.5017 103.04 87.7412 105.613 91.335C108.197 94.9339 111.176 97.7308 114.551 99.7308C117.936 101.72 121.52 102.71 125.301 102.71C128.827 102.71 131.848 102.262 134.363 101.377C136.874 100.491 138.999 99.3923 140.738 98.085C142.473 96.7673 143.848 95.4548 144.863 94.1475C145.889 92.8298 146.624 91.7256 147.072 90.835C147.514 89.9339 147.738 89.4808 147.738 89.4808H148.613V100.043C145.457 101.043 142.04 101.897 138.363 102.606C134.697 103.314 130.342 103.668 125.301 103.668Z" fill="white"/>
</svg>
