<svg width="434" height="110" viewBox="0 0 434 110" fill="none" xmlns="http://www.w3.org/2000/svg">
<path d="M91.1644 99.6844C91.5022 99.7552 91.7556 99.9107 91.9526 100.137C92.1778 100.363 92.2482 100.646 92.1778 100.986C92.1778 101.283 92.0371 101.509 91.7837 101.665C91.5585 101.848 91.2488 101.962 90.8828 102.004C90.4324 102.032 89.9538 102.018 89.4752 101.947C86.2377 101.41 83.0142 101.056 79.7907 100.873C76.5532 100.674 73.3297 100.547 70.1063 100.476C69.8811 100.476 69.6558 100.476 69.4306 100.476C67.1362 100.392 64.8699 100.335 62.6177 100.307C60.0981 100.222 57.5643 100.151 55.0165 100.08C51.5256 99.9673 48.0066 99.9673 44.4875 100.08C40.9544 100.222 37.4071 100.434 33.8458 100.703C33.6206 100.703 33.3532 100.717 33.0576 100.759C32.8324 100.788 32.6212 100.816 32.4382 100.816C31.0447 100.844 29.9749 101.495 29.2288 102.739C28.7362 103.532 28.159 104.239 27.4834 104.889C27.3708 105.031 27.2582 105.144 27.1456 105.229C25.3016 107.265 23.2183 108.623 20.8957 109.302C18.6013 110.009 16.1238 110.179 13.4634 109.811C12.5203 109.698 11.6194 109.387 10.7608 108.906C9.29686 108.072 8.52267 107.124 8.45229 106.077C8.36783 105.059 8.98719 104.012 10.3104 102.966C11.915 101.905 13.6887 101.17 15.603 100.759C17.8834 100.109 20.22 99.5713 22.5848 99.1187C22.8101 99.1187 22.9931 99.0904 23.1479 99.0621C24.274 98.9065 25.0763 98.7368 25.569 98.5529C26.0898 98.3974 26.498 98.1145 26.8077 97.7043C27.1033 97.28 27.4271 96.6294 27.7649 95.7242C27.9057 95.4131 28.0605 95.0595 28.2153 94.6493C29.4118 91.962 30.3831 89.2323 31.1432 86.446C31.8892 83.688 32.5508 80.9017 33.1139 78.0729C36.1544 63.2928 37.9843 48.3713 38.6318 33.3224C38.7725 29.4754 38.7585 25.6283 38.5755 21.7812C38.3784 17.9341 37.9561 14.1154 37.2805 10.2966C37.013 8.71249 36.5626 7.22741 35.9291 5.82718C35.2816 4.55426 34.5356 3.71978 33.6769 3.3379C32.8464 2.97017 31.7344 2.99845 30.3549 3.45105C27.5678 4.32796 25.006 5.60089 22.6411 7.29812C18.1367 10.5512 14.3925 14.3417 11.4365 18.6696C8.50859 22.9693 6.39715 27.863 5.13029 33.3224C4.52501 35.6986 4.39832 38.0747 4.73615 40.4508C5.03176 42.3744 5.60888 44.0716 6.48161 45.5426C7.38249 46.9852 8.76196 48.0884 10.6482 48.8805C10.9016 48.9936 11.1549 49.1633 11.3801 49.3896C11.4505 49.4321 11.5068 49.4745 11.5491 49.5028C11.7321 49.6159 11.7884 49.8139 11.718 50.0685C11.6757 50.2948 11.5631 50.507 11.3801 50.6908C10.7326 51.1434 10.057 51.3414 9.35317 51.2566C7.57956 51.0727 6.05932 50.3938 4.79246 49.2199C2.90624 47.5227 1.59715 45.6274 0.851109 43.5059C0.133219 41.356 -0.134229 39.0365 0.0628383 36.5472C0.288058 33.3083 0.991873 30.1543 2.20243 27.0992C4.18718 21.8944 6.84759 17.2977 10.1977 13.295C13.576 9.26409 17.6863 5.85547 22.5285 3.05503C24.1051 2.14983 25.7379 1.41436 27.4271 0.848619C29.1162 0.282873 30.8617 0 32.6634 0C34.8734 0 36.6752 0.480886 38.0687 1.41436C39.4482 2.36199 40.518 3.83293 41.2781 5.82718C41.9538 7.75072 42.4605 9.73083 42.7983 11.7675C43.3895 15.9257 43.7555 20.1123 43.8681 24.3271C43.9808 30.7483 43.7696 37.1129 43.2488 43.4493C42.7561 49.7856 42.0242 56.122 41.0529 62.4584C40.4476 66.3903 39.786 70.3081 39.0822 74.2259C38.4066 78.1012 37.5761 81.9907 36.6048 85.8802C35.6195 89.3454 34.4371 92.7541 33.0576 96.1202C32.5649 97.2093 32.945 97.7185 34.1837 97.6478C35.2675 97.6053 36.3514 97.5346 37.4494 97.4215C39.0259 97.3083 40.5743 97.2234 42.1227 97.1952C44.9379 97.1527 47.7813 97.1527 50.681 97.1952C51.8775 97.1952 53.074 97.1952 54.2846 97.1952C65.7989 97.2234 77.2852 97.8741 88.7432 99.1187C89.5597 99.2318 90.3761 99.4157 91.1644 99.6844ZM22.0781 104.154C22.1063 104.111 22.2048 103.998 22.3596 103.814C22.5004 103.616 22.6411 103.418 22.7538 103.192C22.8945 102.994 22.9368 102.824 22.8664 102.683C22.8241 102.527 22.6693 102.485 22.4159 102.57C19.6711 102.824 17.081 103.588 14.6458 104.833C14.2235 105.059 13.9843 105.257 13.9139 105.455C13.8294 105.681 13.8716 105.879 14.0265 106.077C14.7021 106.869 15.5608 107.181 16.6165 107.039C17.6582 106.884 18.6998 106.53 19.7133 105.964C20.7268 105.398 21.515 104.79 22.0781 104.154Z" fill="white"/>
<path d="M60.4929 65.3437C60.4507 65.3437 60.4085 65.3437 60.3803 65.3437C60.3803 65.3437 60.3944 65.3437 60.4366 65.3437C60.4366 65.3437 60.4507 65.3437 60.4929 65.3437ZM80.1997 62.515C80.3827 62.3736 80.7064 62.218 81.1569 62.0624C81.6073 61.8786 82.0296 61.7654 82.4519 61.723C82.8601 61.6947 83.1557 61.8361 83.3528 62.1756C83.4654 62.4443 83.4795 62.6847 83.4091 62.911C83.3668 63.1373 83.2542 63.3353 83.0712 63.4768C82.0578 64.6083 80.4531 65.7681 78.2853 66.9278C76.1035 68.1018 73.8513 69.1342 71.5287 70.0394C69.1921 70.9163 67.2636 71.4821 65.7293 71.7367C63.9557 72.0478 62.1821 72.1186 60.3803 71.963C58.1281 71.666 56.453 70.7466 55.3692 69.1908C54.2853 67.6067 53.8349 65.8388 54.0179 63.8728C54.3557 61.6947 55.341 59.955 57.002 58.6679C58.6912 57.3526 60.6196 56.8576 62.8014 57.197C64.1105 57.395 65.2929 57.8759 66.3487 58.6679C67.5029 59.6156 68.0378 60.7046 67.9252 61.9493C67.8126 63.1656 67.0806 64.085 65.7293 64.7214C65.0536 65.0609 64.2794 65.2872 63.4208 65.4003C62.5903 65.4852 61.619 65.4569 60.4929 65.3437C60.4929 65.3437 60.4507 65.3437 60.3803 65.3437C60.3381 65.3437 60.2396 65.3437 60.0988 65.3437C59.9862 65.3437 59.8736 65.3437 59.761 65.3437C59.4231 65.3437 59.1979 65.4428 59.0853 65.6266C58.9727 65.8246 58.9727 66.0651 59.0853 66.3621C59.6765 67.9179 60.8871 68.7241 62.6888 68.7948C64.5187 68.8797 66.588 68.5402 68.8824 67.7765C71.1627 66.9844 73.3446 66.0792 75.4138 65.0609C77.4689 64.0425 79.0736 63.1939 80.1997 62.515ZM60.4366 60.7046C60.127 60.9026 59.9299 61.1431 59.8173 61.4401C59.7328 61.7088 59.6765 61.9351 59.6484 62.119C59.6484 62.317 59.6765 62.4302 59.761 62.4584C59.8314 62.5009 60.0566 62.5574 60.4366 62.6282C60.8448 62.6706 61.2812 62.6706 61.7316 62.6282C62.2102 62.5999 62.6044 62.5009 62.9141 62.3453C63.2519 62.1614 63.3645 61.8644 63.2519 61.4401C63.0548 60.8744 62.6607 60.5208 62.0695 60.3652C61.4642 60.2237 60.9152 60.3369 60.4366 60.7046Z" fill="white"/>
<path d="M86.4996 65.3437C86.4573 65.3437 86.4151 65.3437 86.3869 65.3437C86.3869 65.3437 86.401 65.3437 86.4433 65.3437C86.4433 65.3437 86.4573 65.3437 86.4996 65.3437ZM106.206 62.515C106.389 62.3736 106.713 62.218 107.164 62.0624C107.614 61.8786 108.036 61.7654 108.459 61.723C108.867 61.6947 109.162 61.8361 109.359 62.1756C109.472 62.4443 109.486 62.6847 109.416 62.911C109.373 63.1373 109.261 63.3353 109.078 63.4768C108.064 64.6083 106.46 65.7681 104.292 66.9278C102.11 68.1018 99.8579 69.1342 97.5353 70.0394C95.1987 70.9163 93.2702 71.4821 91.7359 71.7367C89.9623 72.0478 88.1887 72.1186 86.3869 71.963C84.1347 71.666 82.4597 70.7466 81.3758 69.1908C80.2919 67.6067 79.8415 65.8388 80.0245 63.8728C80.3623 61.6947 81.3477 59.955 83.0086 58.6679C84.6978 57.3526 86.6262 56.8576 88.8081 57.197C90.1172 57.395 91.2996 57.8759 92.3553 58.6679C93.5095 59.6156 94.0444 60.7046 93.9318 61.9493C93.8192 63.1656 93.0872 64.085 91.7359 64.7214C91.0603 65.0609 90.2861 65.2872 89.4274 65.4003C88.5969 65.4852 87.6257 65.4569 86.4996 65.3437C86.4996 65.3437 86.4573 65.3437 86.3869 65.3437C86.3447 65.3437 86.2462 65.3437 86.1054 65.3437C85.9928 65.3437 85.8802 65.3437 85.7676 65.3437C85.4298 65.3437 85.2045 65.4428 85.0919 65.6266C84.9793 65.8246 84.9793 66.0651 85.0919 66.3621C85.6831 67.9179 86.8937 68.7241 88.6955 68.7948C90.5254 68.8797 92.5946 68.5402 94.889 67.7765C97.1694 66.9844 99.3512 66.0792 101.42 65.0609C103.476 64.0425 105.08 63.1939 106.206 62.515ZM86.4433 60.7046C86.1336 60.9026 85.9365 61.1431 85.8239 61.4401C85.7394 61.7088 85.6831 61.9351 85.655 62.119C85.655 62.317 85.6831 62.4302 85.7676 62.4584C85.838 62.5009 86.0632 62.5574 86.4433 62.6282C86.8515 62.6706 87.2878 62.6706 87.7383 62.6282C88.2169 62.5999 88.611 62.5009 88.9207 62.3453C89.2585 62.1614 89.3711 61.8644 89.2585 61.4401C89.0614 60.8744 88.6673 60.5208 88.0761 60.3652C87.4708 60.2237 86.9218 60.3369 86.4433 60.7046Z" fill="white"/>
<path d="M130.411 62.798C131.228 62.0059 131.903 61.8645 132.438 62.3454C133.001 62.8404 133.001 63.7456 132.438 65.0609C131.157 67.5927 129.51 69.9688 127.483 72.1893C125.456 74.3816 123.162 76.0081 120.614 77.0548C119.488 77.3942 118.362 77.5639 117.236 77.5639C116.11 77.5639 114.984 77.4225 113.857 77.1679C112.759 76.8992 111.859 76.4324 111.155 75.7535C110.437 75.0464 109.818 74.226 109.297 73.3208C107.72 70.3507 106.707 66.051 106.256 60.4218C105.806 54.8068 105.778 48.6826 106.144 42.0351C106.481 35.3593 107.016 28.9664 107.776 22.8563C108.523 16.7462 109.297 11.7111 110.085 7.75089C110.451 6.09608 111.014 4.51199 111.774 2.99862C112.591 1.45696 113.872 0.763923 115.603 0.905361C117.208 0.905361 118.32 1.66912 118.925 3.16834C119.601 5.13431 119.967 7.12857 120.051 9.16525C120.389 14.0024 120.248 18.7829 119.657 23.5352C119.094 28.146 118.376 32.4598 117.517 36.4908C116.645 40.4934 115.744 44.4112 114.815 48.2583C113.604 52.9398 112.464 57.8618 111.38 63.0243C111.408 63.5617 111.464 64.0285 111.549 64.4386C111.69 65.8813 111.901 67.1259 112.168 68.1726C112.422 69.2333 112.985 70.5345 113.857 72.0762C114.674 73.5471 115.715 74.325 116.954 74.3958C118.221 74.4806 119.516 74.1129 120.839 73.3208C122.191 72.5288 123.401 71.5953 124.499 70.4921C125.625 69.4031 126.484 68.3989 127.089 67.4937C127.272 67.2391 127.596 66.7865 128.046 66.1359C128.497 65.457 128.947 64.8064 129.398 64.1558C129.848 63.5193 130.186 63.0667 130.411 62.798ZM110.817 47.8057C111.338 46.4479 111.859 44.2415 112.393 41.1865C112.957 38.1314 113.435 34.737 113.857 31.003C114.308 27.2691 114.646 23.7332 114.871 20.367C115.096 16.9725 115.167 14.257 115.096 12.2203C115.054 10.1836 114.815 9.33498 114.364 9.67442C113.689 12.5456 113.252 15.2046 113.069 17.6514C112.914 18.9385 112.731 20.8479 112.506 23.3655C112.013 27.75 111.563 32.4174 111.155 37.396C110.733 42.3463 110.62 45.8114 110.817 47.8057Z" fill="white"/>
<path d="M155.771 62.1756C155.996 62.218 156.137 62.2888 156.221 62.4019C156.292 62.4868 156.362 62.6282 156.446 62.8545C156.517 63.1232 156.418 63.4202 156.165 63.7597C155.94 64.0991 155.728 64.3679 155.545 64.5517C153.997 66.0227 152.195 66.8996 150.14 67.1542C148.93 67.3522 147.733 67.4088 146.537 67.3239C145.368 67.2107 144.228 66.9137 143.102 66.4187C142.272 66.0085 141.497 66.1358 140.794 66.8147C139.287 68.1725 137.725 69.4737 136.12 70.7184C135.29 71.3265 134.431 71.8357 133.53 72.2459C132.629 72.6702 131.63 72.9106 130.546 72.9814C127.393 72.9106 126.154 71.369 126.83 68.3422C126.872 68.2291 126.914 68.1442 126.943 68.0594C127.843 65.6125 129.054 63.4061 130.546 61.4401C132.038 59.4459 133.924 57.7911 136.177 56.4616C137.669 55.5988 139.287 55.2594 141.019 55.4432C141.469 55.5564 141.892 55.7261 142.314 55.9524C142.835 56.2211 143.046 56.6172 142.933 57.1405C142.891 57.3385 142.821 57.4799 142.708 57.5931C142.595 57.7062 142.455 57.8194 142.314 57.9325C142.229 58.0457 142.145 58.1305 142.032 58.1588C141.92 58.2012 141.779 58.2154 141.638 58.2154C140.399 58.2578 139.33 58.6114 138.429 59.2903C137.556 59.9692 136.754 60.7471 136.008 61.6099C135.177 62.5575 134.403 63.59 133.699 64.7215C133.023 65.8247 132.46 67.14 132.01 68.6817C133.657 67.7058 134.952 66.744 135.895 65.7964C136.078 65.6125 136.289 65.4286 136.514 65.2306C136.655 65.0892 136.824 64.9336 137.021 64.778C137.838 64.0284 138.71 63.3495 139.611 62.7413C140.625 62.1756 141.638 61.8927 142.652 61.8927C143.665 61.8927 144.65 62.317 145.636 63.1374C146.945 64.3113 148.226 64.7639 149.465 64.4952C150.703 64.2406 151.843 63.8021 152.899 63.1939C153.983 62.5151 154.94 62.1756 155.771 62.1756Z" fill="white"/>
<path d="M254.575 64.099C254.124 64.7072 253.618 65.273 253.055 65.7963C252.787 66.1357 252.492 66.4752 252.154 66.8146C247.227 72.4014 242.075 77.7477 236.67 82.8818C231.743 87.5209 226.479 91.6792 220.848 95.3848C217.878 97.3083 214.795 98.9066 211.614 100.194C208.419 101.509 205.083 102.457 201.592 103.022C198.129 103.616 194.68 103.73 191.232 103.362C186.08 102.64 182.124 100.901 179.351 98.1569C176.564 95.3989 174.72 91.9903 173.777 87.9169C172.848 83.8436 172.567 79.5156 172.933 74.9614C173.27 70.3647 174.045 65.9094 175.241 61.6098C176.395 57.2818 177.69 53.463 179.126 50.1817C182.054 43.4776 185.517 37.1129 189.543 31.116C193.554 25.0908 198.157 19.4475 203.337 14.2002C204.083 13.4506 204.379 12.9556 204.238 12.7293C204.126 12.503 203.731 12.3191 203.056 12.1635C202.718 12.1353 202.352 12.0363 201.986 11.8807C200.255 11.3574 198.566 10.8058 196.919 10.24C194.103 9.2641 191.288 8.35891 188.473 7.52443C185.686 6.7041 182.899 6.02521 180.083 5.48775C177.522 5.03515 175.002 4.922 172.482 5.1483C170.652 5.23316 168.963 5.74233 167.415 6.67581C166.331 7.32642 165.416 8.07604 164.656 8.9388C163.91 9.8157 163.473 10.9189 163.361 12.2767C163.248 13.5638 162.375 14.0588 160.714 13.7476C159.631 13.6062 159.082 12.9415 159.082 11.7675C159.082 10.9472 159.251 10.1834 159.588 9.50454C159.926 8.82565 160.363 8.17504 160.883 7.52443C162.882 5.19073 165.388 3.67736 168.428 2.99846C172.187 2.17813 176.001 2.02255 179.858 2.54587C182.673 2.97018 185.432 3.55007 188.135 4.29968C190.838 5.06344 193.54 5.86963 196.243 6.73239C196.468 6.81725 196.693 6.87382 196.919 6.90211C197.735 7.21327 198.566 7.49615 199.396 7.75073C201.451 8.31648 203.478 8.98123 205.477 9.73084C206.223 10.042 206.899 10.1127 207.504 9.95714C208.137 9.8157 208.771 9.4904 209.418 8.99537C211.924 6.9304 214.655 5.17658 217.583 3.73393C221.327 1.8104 225.353 0.707195 229.632 0.396033C230.941 0.282884 232.236 0.325316 233.517 0.509182C234.826 0.707195 236.079 1.07493 237.289 1.64067C239.232 2.63073 240.358 3.96023 240.668 5.65747C240.963 7.32642 240.4 8.96709 238.978 10.5795C237.627 12.0221 236.022 13.0546 234.193 13.6911C231.968 14.6387 229.66 15.1903 227.267 15.3317C224.86 15.4873 222.453 15.5439 220.06 15.5015C217.653 15.4307 215.288 15.162 212.966 14.7094C212.768 14.6811 212.6 14.6387 212.459 14.5963C211.586 14.37 210.798 14.2851 210.094 14.3134C209.376 14.3134 208.658 14.6811 207.954 15.3883C201.761 21.5408 196.327 28.4287 191.682 36.038C187.023 43.6615 183.307 51.5819 180.534 59.7994C179.52 62.713 178.704 65.9519 178.113 69.5302C177.507 73.0803 177.282 76.6162 177.437 80.1662C177.62 83.7446 178.366 87.0825 179.689 90.1799C181.041 93.2632 183.152 95.8515 186.052 97.9306C188.487 99.5854 191.175 100.476 194.103 100.59C198.495 100.703 202.732 99.9956 206.828 98.4964C211.22 96.8274 215.344 94.6635 219.215 91.9903C222.594 89.6425 225.803 87.139 228.844 84.4659C231.912 81.7786 234.939 79.0064 237.909 76.1494C239.035 75.1028 240.921 73.3207 243.595 70.8314C246.256 68.3421 248.691 66.164 250.915 64.2688C251.281 63.9293 251.647 63.5899 251.985 63.2504C252.661 62.614 253.252 62.1189 253.787 61.7795C254.35 61.4117 254.871 61.2562 255.363 61.3269C256.292 61.4117 256.039 62.3311 254.575 64.099ZM229.407 3.28134C226.324 3.73393 223.41 4.66742 220.679 6.05349C217.977 7.45372 215.302 9.19339 212.684 11.2584C215.007 12.0504 217.442 12.5596 220.004 12.7859C222.551 12.9839 224.902 12.9273 227.042 12.6161C228.956 12.3191 230.772 11.7392 232.503 10.8623C233.629 10.2966 234.558 9.54698 235.319 8.59935C235.91 7.66587 236.107 6.76067 235.882 5.88377C235.656 5.02101 235.037 4.35626 234.024 3.90366C232.517 3.26719 230.983 3.05504 229.407 3.28134Z" fill="white"/>
<path d="M278.204 63.0808C278.88 62.3736 279.471 62.0907 280.006 62.2322C280.569 62.3878 280.907 62.7838 281.019 63.4202C281.16 64.0709 280.977 64.778 280.456 65.5701C279.443 67.0834 277.993 68.7241 276.121 70.4921C274.235 72.2742 272.208 73.8158 270.04 75.1312C267.858 76.4465 265.817 77.1679 263.903 77.281C259.961 77.4649 258.117 75.5696 258.385 71.567C258.413 71.0437 258.511 70.3506 258.666 69.4737C258.849 68.611 258.976 67.7765 259.06 66.9844C259.173 66.1641 259.131 65.5984 258.948 65.2872C258.68 65.0609 258.385 64.9478 258.047 64.9478C257.709 64.9478 257.343 64.9902 256.977 65.0609C256.555 65.1458 256.189 65.1599 255.851 65.1175C253.894 64.8912 252.895 63.9011 252.811 62.119C252.782 59.6722 253.233 57.3385 254.218 55.1038C254.514 54.3966 255.077 53.9157 255.907 53.6894C256.724 53.4631 257.484 53.5621 258.16 53.9723C258.61 54.2834 258.807 54.6795 258.779 55.1603C258.694 55.8392 258.582 56.504 258.441 57.1405C258.357 57.4516 258.286 57.7486 258.216 58.0457C257.878 59.7853 257.878 60.6905 258.216 60.7612C258.582 60.8037 259.398 60.3369 260.637 59.3469C261.566 58.668 262.579 58.3851 263.677 58.4983C265.17 58.6538 265.775 59.4883 265.479 60.9875C265.254 62.0483 265.001 63.1091 264.747 64.1557C264.184 66.3904 263.748 68.611 263.452 70.8315C263.34 72.3873 263.593 73.2925 264.24 73.5471C264.916 73.7734 265.789 73.6037 266.887 73.0379C267.971 72.4722 269.111 71.7226 270.321 70.7749C271.56 69.8415 272.63 68.908 273.531 68.0028C274.46 67.0693 275.107 66.3904 275.445 65.9661C275.628 65.7822 275.896 65.4994 276.233 65.1175C276.571 64.7497 276.923 64.3679 277.303 63.986C277.711 63.5758 278.007 63.2788 278.204 63.0808Z" fill="white"/>
<path d="M283.463 65.3437C283.42 65.3437 283.378 65.3437 283.35 65.3437C283.35 65.3437 283.364 65.3437 283.406 65.3437C283.406 65.3437 283.42 65.3437 283.463 65.3437ZM303.169 62.515C303.352 62.3736 303.676 62.218 304.127 62.0624C304.577 61.8786 304.999 61.7654 305.422 61.723C305.83 61.6947 306.125 61.8361 306.323 62.1756C306.435 62.4443 306.449 62.6847 306.379 62.911C306.337 63.1373 306.224 63.3353 306.041 63.4768C305.028 64.6083 303.423 65.7681 301.255 66.9278C299.073 68.1018 296.821 69.1342 294.499 70.0394C292.162 70.9163 290.233 71.4821 288.699 71.7367C286.925 72.0478 285.152 72.1186 283.35 71.963C281.098 71.666 279.423 70.7466 278.339 69.1908C277.255 67.6067 276.805 65.8388 276.988 63.8728C277.325 61.6947 278.311 59.955 279.972 58.6679C281.661 57.3526 283.589 56.8576 285.771 57.197C287.08 57.395 288.263 57.8759 289.318 58.6679C290.473 59.6156 291.008 60.7046 290.895 61.9493C290.782 63.1656 290.05 64.085 288.699 64.7214C288.023 65.0609 287.249 65.2872 286.391 65.4003C285.56 65.4852 284.589 65.4569 283.463 65.3437C283.463 65.3437 283.42 65.3437 283.35 65.3437C283.308 65.3437 283.209 65.3437 283.069 65.3437C282.956 65.3437 282.843 65.3437 282.731 65.3437C282.393 65.3437 282.168 65.4428 282.055 65.6266C281.942 65.8246 281.942 66.0651 282.055 66.3621C282.646 67.9179 283.857 68.7241 285.659 68.7948C287.489 68.8797 289.558 68.5402 291.852 67.7765C294.133 66.9844 296.314 66.0792 298.384 65.0609C300.439 64.0425 302.043 63.1939 303.169 62.515ZM283.406 60.7046C283.097 60.9026 282.9 61.1431 282.787 61.4401C282.703 61.7088 282.646 61.9351 282.618 62.119C282.618 62.317 282.646 62.4302 282.731 62.4584C282.801 62.5009 283.026 62.5574 283.406 62.6282C283.815 62.6706 284.251 62.6706 284.701 62.6282C285.18 62.5999 285.574 62.5009 285.884 62.3453C286.222 62.1614 286.334 61.8644 286.222 61.4401C286.025 60.8744 285.63 60.5208 285.039 60.3652C284.434 60.2237 283.885 60.3369 283.406 60.7046Z" fill="white"/>
<path d="M329.232 62.1756C329.458 62.218 329.598 62.2888 329.683 62.4019C329.753 62.4868 329.824 62.6282 329.908 62.8545C329.978 63.1232 329.88 63.4202 329.626 63.7597C329.401 64.0991 329.19 64.3679 329.007 64.5517C327.459 66.0227 325.657 66.8996 323.602 67.1542C322.391 67.3522 321.195 67.4088 319.998 67.3239C318.83 67.2107 317.69 66.9137 316.564 66.4187C315.733 66.0085 314.959 66.1358 314.255 66.8147C312.749 68.1725 311.187 69.4737 309.582 70.7184C308.751 71.3265 307.893 71.8357 306.992 72.2459C306.091 72.6702 305.092 72.9106 304.008 72.9814C300.855 72.9106 299.616 71.369 300.292 68.3422C300.334 68.2291 300.376 68.1442 300.404 68.0594C301.305 65.6125 302.516 63.4061 304.008 61.4401C305.5 59.4459 307.386 57.7911 309.638 56.4616C311.13 55.5988 312.749 55.2594 314.48 55.4432C314.931 55.5564 315.353 55.7261 315.775 55.9524C316.296 56.2211 316.507 56.6172 316.395 57.1405C316.353 57.3385 316.282 57.4799 316.17 57.5931C316.057 57.7062 315.916 57.8194 315.775 57.9325C315.691 58.0457 315.607 58.1305 315.494 58.1588C315.381 58.2012 315.241 58.2154 315.1 58.2154C313.861 58.2578 312.791 58.6114 311.89 59.2903C311.018 59.9692 310.215 60.7471 309.469 61.6099C308.639 62.5575 307.865 63.59 307.161 64.7215C306.485 65.8247 305.922 67.14 305.472 68.6817C307.119 67.7058 308.414 66.744 309.357 65.7964C309.54 65.6125 309.751 65.4286 309.976 65.2306C310.117 65.0892 310.286 64.9336 310.483 64.778C311.299 64.0284 312.172 63.3495 313.073 62.7413C314.086 62.1756 315.1 61.8927 316.113 61.8927C317.127 61.8927 318.112 62.317 319.097 63.1374C320.407 64.3113 321.687 64.7639 322.926 64.4952C324.165 64.2406 325.305 63.8021 326.361 63.1939C327.445 62.5151 328.402 62.1756 329.232 62.1756Z" fill="white"/>
<path d="M349.581 62.4584C349.989 62.1189 350.285 62.0058 350.482 62.1189C350.707 62.2038 350.848 62.4018 350.932 62.7412C351.045 63.0524 351.101 63.3494 351.101 63.6464C351.059 64.2122 350.946 64.7638 350.763 65.2871C350.566 65.7821 350.439 66.1216 350.369 66.3054C350.285 66.3479 350.256 66.362 350.256 66.362C349.693 67.8047 348.793 69.2332 347.554 70.6617C346.343 72.0619 344.922 73.1934 343.275 74.0562C341.614 74.9331 339.868 75.3008 338.038 75.1876C335.406 74.8906 333.323 73.8864 331.788 72.1892C330.24 70.4637 329.086 68.3987 328.298 66.0226C327.509 63.6464 326.988 61.2986 326.721 58.9507C326.017 53.2226 325.806 47.4519 326.102 41.6389C326.144 40.2528 326.186 38.8385 326.214 37.3958C326.214 36.9149 326.214 36.4199 326.214 35.9249C326.214 35.0197 325.792 34.5671 324.919 34.5671C324.018 34.5671 323.117 34.5529 322.217 34.5105C321.203 34.5105 320.19 34.5105 319.176 34.5105C319.035 34.5105 318.88 34.5105 318.726 34.5105C318.022 34.5954 317.36 34.4539 316.755 34.1145C316.459 34.0013 316.22 33.8316 316.023 33.6053C315.84 33.379 315.741 33.0961 315.741 32.7567C315.784 32.4172 315.91 32.1627 316.136 31.9646C316.361 31.7808 316.642 31.6818 316.98 31.6818C318.191 31.6535 319.387 31.6252 320.584 31.6252C321.344 31.6252 322.076 31.6252 322.78 31.6252C323.723 31.6252 324.666 31.5969 325.595 31.5121C326.13 31.4838 326.468 31.1585 326.608 30.5503C326.693 29.8714 326.749 29.1783 326.777 28.457C326.932 26.194 327.101 23.9169 327.284 21.6115C327.425 20.0274 327.566 18.4857 327.678 16.9724C327.678 16.9017 327.678 16.8451 327.678 16.8027C327.678 16.5056 327.692 16.2086 327.734 15.8975C328.072 14.5821 328.945 13.9598 330.381 14.0305C331.62 14.1154 332.309 14.7943 332.464 16.0672C332.492 16.9017 332.492 17.7503 332.464 18.613C332.464 18.9525 332.464 19.3202 332.464 19.688C332.464 19.688 332.436 19.688 332.408 19.688C332.323 20.6356 332.267 21.5974 332.239 22.5733C332.084 24.7231 331.971 26.9012 331.901 29.0793C331.817 30.2533 331.915 30.9887 332.183 31.2858C332.478 31.5545 333.252 31.6676 334.491 31.6252C336.814 31.6676 339.122 31.6818 341.417 31.6818C343.063 31.6818 344.71 31.7101 346.371 31.7383C346.554 31.7383 346.723 31.7383 346.878 31.7383C347.286 31.7101 347.681 31.7242 348.061 31.7949C348.427 31.8798 348.807 32.0071 349.187 32.1909C349.299 32.3041 349.384 32.4455 349.468 32.587C349.581 32.7001 349.665 32.8557 349.75 33.0396C349.75 33.2659 349.665 33.4639 349.524 33.6053C349.412 33.7185 349.299 33.8175 349.187 33.8882C348.427 34.3125 347.638 34.4822 346.822 34.3974C346.709 34.3974 346.554 34.3974 346.371 34.3974C343.894 34.3974 341.431 34.4256 338.995 34.4539C337.644 34.4964 336.265 34.5105 334.885 34.5105C334.773 34.5105 334.674 34.5105 334.604 34.5105C333.998 34.5105 333.365 34.5388 332.689 34.5671C332.014 34.6519 331.62 35.0197 331.507 35.6986C331.422 36.0805 331.394 36.434 331.394 36.7735C331.239 40.4367 331.169 44.114 331.169 47.8055C331.197 51.4687 331.451 55.1037 331.901 58.7244C332.267 61.638 333.027 64.4102 334.153 67.0409C334.787 68.5118 335.533 69.6716 336.405 70.4919C337.306 71.3264 338.32 71.6659 339.446 71.5103C341.501 71.1708 343.106 70.4354 344.232 69.3039C345.358 68.1724 346.315 66.956 347.103 65.6265C347.849 64.3536 348.68 63.2928 349.581 62.4584Z" fill="white"/>
<path d="M368.354 62.232C368.607 62.3876 368.72 62.6139 368.691 62.9109C368.691 63.2221 368.593 63.505 368.41 63.7595C367.129 65.6548 365.764 67.3237 364.3 68.7947C362.836 70.2656 361.217 71.383 359.457 72.1326C357.726 72.8539 355.713 73.0378 353.433 72.6983C351.927 72.472 350.786 71.9629 349.998 71.1708C349.238 70.3788 348.675 69.2473 348.309 67.7763C347.676 65.5134 347.521 63.1797 347.859 60.7611C348.154 59.375 349.013 58.6396 350.449 58.5547C351.758 58.5547 352.476 59.1487 352.588 60.3085C352.616 61.2986 352.616 62.2603 352.588 63.1938C352.588 63.307 352.588 63.4201 352.588 63.5333C352.504 66.1357 352.926 67.9178 353.827 68.8513C354.728 69.7989 355.91 70.0393 357.374 69.5867C358.838 69.1341 360.386 68.1017 362.047 66.4751C362.273 66.2913 362.526 66.0225 362.836 65.6831C363.131 65.3154 363.469 64.9335 363.849 64.5516C364.37 64.0283 364.806 63.5757 365.144 63.1938C366.186 62.1472 367.256 61.8219 368.354 62.232ZM350.111 54.4247C348.942 54.354 348.281 53.7317 348.14 52.5578C347.985 51.6526 348.112 50.7898 348.534 49.9553C348.9 49.2482 349.505 48.7531 350.336 48.4844C351.195 48.2298 351.997 48.3005 352.757 48.7107C353.053 48.8663 353.264 49.0784 353.376 49.333C353.489 49.6018 353.517 49.8281 353.489 50.0119C353.447 52.9962 352.321 54.4672 350.111 54.4247Z" fill="white"/>
<path d="M380.033 57.2536C380.371 57.3667 380.624 57.5365 380.821 57.7628C381.004 57.9608 381.074 58.2154 381.046 58.5548C380.891 59.3893 380.68 60.1955 380.427 60.9875C379.934 62.6565 379.301 64.2688 378.512 65.8529C377.752 67.4087 376.781 68.8372 375.585 70.1526C375.205 70.5769 374.81 70.9729 374.402 71.3407C374.022 71.6801 373.572 71.9347 373.051 72.0761C371.812 72.458 370.63 72.5146 369.504 72.2459C368.406 71.9488 367.505 71.0437 366.801 69.5303C365.478 66.6733 364.704 63.6748 364.436 60.5349C364.324 59.4034 364.704 58.7245 365.562 58.4982C366.266 58.3144 366.928 58.3144 367.533 58.4982C368.124 58.6538 368.518 58.9791 368.715 59.46C369.053 60.3369 369.293 61.2138 369.447 62.119C369.518 62.3877 369.588 62.6282 369.673 62.8545C369.743 63.2788 369.813 63.6748 369.898 64.0425C370.151 65.1457 370.419 66.0509 370.686 66.7581C370.939 67.437 371.32 67.7199 371.812 67.6067C372.291 67.4653 372.952 66.645 373.783 65.174C374.979 63.1091 375.993 60.9309 376.823 58.668C377.457 57.2395 378.527 56.7727 380.033 57.2536Z" fill="white"/>
<path d="M387.996 65.3437C387.953 65.3437 387.911 65.3437 387.883 65.3437C387.883 65.3437 387.897 65.3437 387.939 65.3437C387.939 65.3437 387.953 65.3437 387.996 65.3437ZM407.702 62.515C407.885 62.3736 408.209 62.218 408.66 62.0624C409.11 61.8786 409.532 61.7654 409.955 61.723C410.363 61.6947 410.658 61.8361 410.856 62.1756C410.968 62.4443 410.982 62.6847 410.912 62.911C410.87 63.1373 410.757 63.3353 410.574 63.4768C409.561 64.6083 407.956 65.7681 405.788 66.9278C403.606 68.1018 401.354 69.1342 399.031 70.0394C396.695 70.9163 394.766 71.4821 393.232 71.7367C391.458 72.0478 389.685 72.1186 387.883 71.963C385.631 71.666 383.956 70.7466 382.872 69.1908C381.788 67.6067 381.338 65.8388 381.521 63.8728C381.858 61.6947 382.844 59.955 384.505 58.6679C386.194 57.3526 388.122 56.8576 390.304 57.197C391.613 57.395 392.796 57.8759 393.851 58.6679C395.006 59.6156 395.541 60.7046 395.428 61.9493C395.315 63.1656 394.583 64.085 393.232 64.7214C392.556 65.0609 391.782 65.2872 390.924 65.4003C390.093 65.4852 389.122 65.4569 387.996 65.3437C387.996 65.3437 387.953 65.3437 387.883 65.3437C387.841 65.3437 387.742 65.3437 387.602 65.3437C387.489 65.3437 387.376 65.3437 387.264 65.3437C386.926 65.3437 386.701 65.4428 386.588 65.6266C386.475 65.8246 386.475 66.0651 386.588 66.3621C387.179 67.9179 388.39 68.7241 390.192 68.7948C392.021 68.8797 394.091 68.5402 396.385 67.7765C398.665 66.9844 400.847 66.0792 402.917 65.0609C404.972 64.0425 406.576 63.1939 407.702 62.515ZM387.939 60.7046C387.63 60.9026 387.433 61.1431 387.32 61.4401C387.236 61.7088 387.179 61.9351 387.151 62.119C387.151 62.317 387.179 62.4302 387.264 62.4584C387.334 62.5009 387.559 62.5574 387.939 62.6282C388.348 62.6706 388.784 62.6706 389.234 62.6282C389.713 62.5999 390.107 62.5009 390.417 62.3453C390.755 62.1614 390.867 61.8644 390.755 61.4401C390.558 60.8744 390.163 60.5208 389.572 60.3652C388.967 60.2237 388.418 60.3369 387.939 60.7046Z" fill="white"/>
<path d="M432.808 62.2321C433.512 62.3877 433.906 62.7837 433.991 63.4202C434.061 64.0708 433.737 64.7073 433.033 65.3437C432.315 65.9944 431.626 66.5742 430.95 67.0976C429.289 68.4553 427.53 69.9121 425.657 71.4538C424.151 72.6702 422.786 73.9997 421.547 75.4706C420.646 76.4465 419.971 77.5639 419.52 78.8085C419.027 80.4209 418.197 81.8777 417.043 83.1647C416.367 83.9144 415.593 84.367 414.734 84.5225C413.904 84.7064 413.045 84.664 412.144 84.4094C411.694 84.2962 411.356 84.0416 411.131 83.6739C410.905 83.3345 410.849 82.9384 410.962 82.4858C411.103 81.807 411.37 81.1422 411.75 80.5057C412.313 79.7137 412.89 78.9358 413.496 78.1862C413.524 78.1013 413.58 78.0306 413.664 77.9599C415.832 75.2443 415.973 72.4721 414.059 69.6434C413.608 69.0494 413.101 68.4412 412.538 67.833C412.341 67.6492 412.158 67.437 411.975 67.2107C411.637 66.8005 411.271 66.4045 410.905 66.0226C410.188 65.3155 409.512 64.5376 408.879 63.7031C407.006 61.0724 407.119 58.5548 409.216 56.1787C411.046 54.0005 413.327 52.4872 416.029 51.6527C417.718 51.1718 419.351 51.3132 420.928 52.1053C422.462 52.9398 423.18 54.2268 423.067 55.9524C422.87 57.1263 422.293 57.8193 421.322 58.0456C420.041 58.2719 419.126 57.8759 418.563 56.8576C418.408 56.4474 418.296 56.0938 418.225 55.7826C418.141 55.4432 418.028 55.2028 417.887 55.0472C417.775 54.8633 417.564 54.8067 417.268 54.8774C417.001 54.9623 416.55 55.1886 415.917 55.5563C414.974 56.1221 414.143 56.8576 413.439 57.7627C412.313 59.1205 412.257 60.5773 413.27 62.119C413.608 62.614 413.974 63.0666 414.396 63.4768C414.847 64.0142 415.269 64.5234 415.691 65.0043C416.508 65.8388 417.282 66.6874 418 67.5502C418.746 68.4271 419.408 69.3464 419.971 70.3223C420.379 70.2516 421.097 69.8697 422.11 69.1908C423.152 68.4836 424.278 67.6492 425.488 66.7015C426.685 65.7681 427.797 64.9194 428.81 64.1557C429.627 63.5192 430.218 63.0666 430.556 62.7979C430.809 62.614 431.147 62.4584 431.569 62.3453C431.978 62.2321 432.386 62.2039 432.808 62.2321Z" fill="white"/>
</svg>
