<svg width="162" height="41" viewBox="0 0 162 41" fill="none" xmlns="http://www.w3.org/2000/svg">
<path d="M34.1758 37.0625C34.3008 37.0885 34.3945 37.1458 34.4674 37.2291C34.5508 37.3125 34.5768 37.4166 34.5508 37.5416C34.5508 37.651 34.4987 37.7343 34.4049 37.7916C34.3216 37.8593 34.207 37.901 34.0716 37.9166C33.9049 37.927 33.7279 37.9218 33.5508 37.8958C32.3529 37.6979 31.1601 37.5677 29.9674 37.5C28.7695 37.427 27.5768 37.3802 26.3841 37.3541C26.3008 37.3541 26.2174 37.3541 26.1341 37.3541C25.2851 37.3229 24.4466 37.302 23.6133 37.2916C22.681 37.2604 21.7435 37.2343 20.8008 37.2083C19.5091 37.1666 18.207 37.1666 16.9049 37.2083C15.5976 37.2604 14.2851 37.3385 12.9674 37.4375C12.8841 37.4375 12.7851 37.4427 12.6758 37.4583C12.5924 37.4687 12.5143 37.4791 12.4466 37.4791C11.931 37.4895 11.5351 37.7291 11.2591 38.1875C11.0768 38.4791 10.8633 38.7395 10.6133 38.9791C10.5716 39.0312 10.5299 39.0729 10.4883 39.1041C9.80598 39.8541 9.03514 40.3541 8.17577 40.6041C7.32681 40.8645 6.41014 40.927 5.42577 40.7916C5.07681 40.75 4.74348 40.6354 4.42577 40.4583C3.8841 40.151 3.59764 39.802 3.5716 39.4166C3.54035 39.0416 3.76952 38.6562 4.2591 38.2708C4.85285 37.8802 5.5091 37.6093 6.21743 37.4583C7.06119 37.2187 7.92577 37.0208 8.80077 36.8541C8.8841 36.8541 8.95181 36.8437 9.0091 36.8333C9.42577 36.776 9.72264 36.7135 9.90494 36.6458C10.0976 36.5885 10.2487 36.4843 10.3633 36.3333C10.4726 36.177 10.5924 35.9375 10.7174 35.6041C10.7695 35.4895 10.8268 35.3593 10.8841 35.2083C11.3268 34.2187 11.6862 33.2135 11.9674 32.1875C12.2435 31.1718 12.4883 30.1458 12.6966 29.1041C13.8216 23.6614 14.4987 18.1666 14.7383 12.625C14.7904 11.2083 14.7851 9.79163 14.7174 8.37496C14.6445 6.95829 14.4883 5.55204 14.2383 4.14579C14.1393 3.56246 13.9726 3.01558 13.7383 2.49996C13.4987 2.03121 13.2226 1.72392 12.9049 1.58329C12.5976 1.44788 12.1862 1.45829 11.6758 1.62496C10.6445 1.94788 9.6966 2.41663 8.8216 3.04163C7.15493 4.23954 5.76952 5.63538 4.67577 7.22913C3.59243 8.81246 2.81119 10.6145 2.34243 12.625C2.11848 13.5 2.0716 14.375 2.1966 15.25C2.30598 15.9583 2.51952 16.5833 2.84243 17.125C3.17577 17.6562 3.68618 18.0625 4.3841 18.3541C4.47785 18.3958 4.5716 18.4583 4.65493 18.5416C4.68098 18.5573 4.70181 18.5729 4.71743 18.5833C4.78514 18.625 4.80598 18.6979 4.77993 18.7916C4.76431 18.875 4.72264 18.9531 4.65493 19.0208C4.41535 19.1875 4.16535 19.2604 3.90493 19.2291C3.24868 19.1614 2.68619 18.9114 2.21743 18.4791C1.51952 17.8541 1.03514 17.1562 0.759101 16.375C0.493476 15.5833 0.394517 14.7291 0.467434 13.8125C0.550767 12.6198 0.811185 11.4583 1.2591 10.3333C1.99348 8.41663 2.97785 6.72392 4.21743 5.24996C5.46743 3.76558 6.98827 2.51038 8.77993 1.47913C9.36327 1.14579 9.96744 0.874959 10.5924 0.666626C11.2174 0.458293 11.8633 0.354126 12.5299 0.354126C13.3476 0.354126 14.0143 0.53121 14.5299 0.874959C15.0404 1.22392 15.4362 1.76558 15.7174 2.49996C15.9674 3.20829 16.1549 3.93746 16.2799 4.68746C16.4987 6.21871 16.6341 7.76038 16.6758 9.31246C16.7174 11.677 16.6393 14.0208 16.4466 16.3541C16.2643 18.6875 15.9935 21.0208 15.6341 23.3541C15.4101 24.802 15.1654 26.2448 14.9049 27.6875C14.6549 29.1145 14.3476 30.5468 13.9883 31.9791C13.6237 33.2552 13.1862 34.5104 12.6758 35.75C12.4935 36.151 12.6341 36.3385 13.0924 36.3125C13.4935 36.2968 13.8945 36.2708 14.3008 36.2291C14.8841 36.1875 15.457 36.1562 16.0299 36.1458C17.0716 36.1302 18.1237 36.1302 19.1966 36.1458C19.6393 36.1458 20.082 36.1458 20.5299 36.1458C24.7904 36.1562 29.0404 36.3958 33.2799 36.8541C33.582 36.8958 33.8841 36.9635 34.1758 37.0625ZM8.61327 38.7083C8.62368 38.6927 8.66014 38.651 8.71743 38.5833C8.76952 38.5104 8.8216 38.4375 8.86327 38.3541C8.91535 38.2812 8.93098 38.2187 8.90493 38.1666C8.88931 38.1093 8.83202 38.0937 8.73827 38.125C7.72264 38.2187 6.76431 38.5 5.86327 38.9583C5.70702 39.0416 5.61848 39.1145 5.59243 39.1875C5.56119 39.2708 5.57681 39.3437 5.6341 39.4166C5.8841 39.7083 6.20181 39.8229 6.59243 39.7708C6.97785 39.7135 7.36327 39.5833 7.73827 39.375C8.11327 39.1666 8.40493 38.9427 8.61327 38.7083Z" fill="black"/>
<path d="M22.8271 24.4167C22.8115 24.4167 22.7958 24.4167 22.7854 24.4167C22.7854 24.4167 22.7906 24.4167 22.8063 24.4167C22.8063 24.4167 22.8115 24.4167 22.8271 24.4167ZM30.1188 23.375C30.1865 23.3229 30.3063 23.2656 30.4729 23.2083C30.6396 23.1406 30.7958 23.099 30.9521 23.0833C31.1031 23.0729 31.2125 23.125 31.2854 23.25C31.3271 23.349 31.3323 23.4375 31.3063 23.5208C31.2906 23.6042 31.249 23.6771 31.1813 23.7292C30.8063 24.1458 30.2125 24.5729 29.4104 25C28.6031 25.4323 27.7698 25.8125 26.9104 26.1458C26.0458 26.4687 25.3323 26.6771 24.7646 26.7708C24.1083 26.8854 23.4521 26.9115 22.7854 26.8542C21.9521 26.7448 21.3323 26.4062 20.9313 25.8333C20.5302 25.25 20.3635 24.599 20.4313 23.875C20.5563 23.0729 20.9208 22.4323 21.5354 21.9583C22.1604 21.474 22.874 21.2917 23.6813 21.4167C24.1656 21.4896 24.6031 21.6667 24.9938 21.9583C25.4208 22.3073 25.6188 22.7083 25.5771 23.1667C25.5354 23.6146 25.2646 23.9531 24.7646 24.1875C24.5146 24.3125 24.2281 24.3958 23.9104 24.4375C23.6031 24.4687 23.2438 24.4583 22.8271 24.4167C22.8271 24.4167 22.8115 24.4167 22.7854 24.4167C22.7698 24.4167 22.7333 24.4167 22.6813 24.4167C22.6396 24.4167 22.5979 24.4167 22.5563 24.4167C22.4313 24.4167 22.3479 24.4531 22.3063 24.5208C22.2646 24.5937 22.2646 24.6823 22.3063 24.7917C22.525 25.3646 22.9729 25.6615 23.6396 25.6875C24.3167 25.7187 25.0823 25.5937 25.9313 25.3125C26.775 25.0208 27.5823 24.6875 28.3479 24.3125C29.1083 23.9375 29.7021 23.625 30.1188 23.375ZM22.8063 22.7083C22.6917 22.7812 22.6188 22.8698 22.5771 22.9792C22.5458 23.0781 22.525 23.1615 22.5146 23.2292C22.5146 23.3021 22.525 23.3437 22.5563 23.3542C22.5823 23.3698 22.6656 23.3906 22.8063 23.4167C22.9573 23.4323 23.1188 23.4323 23.2854 23.4167C23.4625 23.4062 23.6083 23.3698 23.7229 23.3125C23.8479 23.2448 23.8896 23.1354 23.8479 22.9792C23.775 22.7708 23.6292 22.6406 23.4104 22.5833C23.1865 22.5312 22.9833 22.5729 22.8063 22.7083Z" fill="black"/>
<path d="M32.4497 24.4167C32.4341 24.4167 32.4185 24.4167 32.4081 24.4167C32.4081 24.4167 32.4133 24.4167 32.4289 24.4167C32.4289 24.4167 32.4341 24.4167 32.4497 24.4167ZM39.7414 23.375C39.8091 23.3229 39.9289 23.2656 40.0956 23.2083C40.2622 23.1406 40.4185 23.099 40.5747 23.0833C40.7258 23.0729 40.8352 23.125 40.9081 23.25C40.9497 23.349 40.955 23.4375 40.9289 23.5208C40.9133 23.6042 40.8716 23.6771 40.8039 23.7292C40.4289 24.1458 39.8352 24.5729 39.0331 25C38.2258 25.4323 37.3925 25.8125 36.5331 26.1458C35.6685 26.4687 34.955 26.6771 34.3872 26.7708C33.731 26.8854 33.0747 26.9115 32.4081 26.8542C31.5747 26.7448 30.955 26.4062 30.5539 25.8333C30.1529 25.25 29.9862 24.599 30.0539 23.875C30.1789 23.0729 30.5435 22.4323 31.1581 21.9583C31.7831 21.474 32.4966 21.2917 33.3039 21.4167C33.7883 21.4896 34.2258 21.6667 34.6164 21.9583C35.0435 22.3073 35.2414 22.7083 35.1997 23.1667C35.1581 23.6146 34.8872 23.9531 34.3872 24.1875C34.1372 24.3125 33.8508 24.3958 33.5331 24.4375C33.2258 24.4687 32.8664 24.4583 32.4497 24.4167C32.4497 24.4167 32.4341 24.4167 32.4081 24.4167C32.3925 24.4167 32.356 24.4167 32.3039 24.4167C32.2622 24.4167 32.2206 24.4167 32.1789 24.4167C32.0539 24.4167 31.9706 24.4531 31.9289 24.5208C31.8872 24.5937 31.8872 24.6823 31.9289 24.7917C32.1477 25.3646 32.5956 25.6615 33.2622 25.6875C33.9393 25.7187 34.705 25.5937 35.5539 25.3125C36.3977 25.0208 37.205 24.6875 37.9706 24.3125C38.731 23.9375 39.3247 23.625 39.7414 23.375ZM32.4289 22.7083C32.3143 22.7812 32.2414 22.8698 32.1997 22.9792C32.1685 23.0781 32.1477 23.1615 32.1372 23.2292C32.1372 23.3021 32.1477 23.3437 32.1789 23.3542C32.205 23.3698 32.2883 23.3906 32.4289 23.4167C32.58 23.4323 32.7414 23.4323 32.9081 23.4167C33.0852 23.4062 33.231 23.3698 33.3456 23.3125C33.4706 23.2448 33.5122 23.1354 33.4706 22.9792C33.3977 22.7708 33.2518 22.6406 33.0331 22.5833C32.8091 22.5312 32.606 22.5729 32.4289 22.7083Z" fill="black"/>
<path d="M48.6974 23.4792C48.9995 23.1875 49.2495 23.1354 49.4474 23.3125C49.6557 23.4948 49.6557 23.8282 49.4474 24.3125C48.9734 25.2448 48.3641 26.1198 47.6141 26.9375C46.8641 27.7448 46.0151 28.3438 45.0724 28.7292C44.6557 28.8542 44.2391 28.9167 43.8224 28.9167C43.4057 28.9167 42.9891 28.8646 42.5724 28.7709C42.1661 28.6719 41.8328 28.5 41.5724 28.25C41.3068 27.9896 41.0776 27.6875 40.8849 27.3542C40.3016 26.2604 39.9266 24.6771 39.7599 22.6042C39.5932 20.5365 39.5828 18.2813 39.7182 15.8334C39.8432 13.375 40.0411 11.0209 40.3224 8.77086C40.5984 6.52086 40.8849 4.66669 41.1766 3.20836C41.312 2.59898 41.5203 2.01565 41.8016 1.45836C42.1036 0.890651 42.5776 0.635442 43.2182 0.687526C43.812 0.687526 44.2234 0.968775 44.4474 1.52086C44.6974 2.24482 44.8328 2.97919 44.8641 3.72919C44.9891 5.51044 44.937 7.27086 44.7182 9.02086C44.5099 10.7188 44.2443 12.3073 43.9266 13.7917C43.6036 15.2657 43.2703 16.7084 42.9266 18.125C42.4786 19.849 42.0568 21.6615 41.6557 23.5625C41.6661 23.7604 41.687 23.9323 41.7182 24.0834C41.7703 24.6146 41.8484 25.0729 41.9474 25.4584C42.0411 25.849 42.2495 26.3282 42.5724 26.8959C42.8745 27.4375 43.2599 27.724 43.7182 27.75C44.187 27.7813 44.6661 27.6459 45.1557 27.3542C45.6557 27.0625 46.1036 26.7188 46.5099 26.3125C46.9266 25.9115 47.2443 25.5417 47.4682 25.2084C47.5359 25.1146 47.6557 24.9479 47.8224 24.7084C47.9891 24.4584 48.1557 24.2188 48.3224 23.9792C48.4891 23.7448 48.6141 23.5782 48.6974 23.4792ZM41.4474 17.9584C41.6401 17.4584 41.8328 16.6459 42.0307 15.5209C42.2391 14.3959 42.4161 13.1459 42.5724 11.7709C42.7391 10.3959 42.8641 9.09378 42.9474 7.85419C43.0307 6.60419 43.0568 5.60419 43.0307 4.85419C43.0151 4.10419 42.9266 3.79169 42.7599 3.91669C42.5099 4.97398 42.3484 5.95315 42.2807 6.85419C42.2234 7.32815 42.1557 8.03128 42.0724 8.95836C41.8901 10.5729 41.7234 12.2917 41.5724 14.125C41.4161 15.9479 41.3745 17.224 41.4474 17.9584Z" fill="black"/>
<path d="M58.0807 23.25C58.164 23.2656 58.2161 23.2917 58.2473 23.3333C58.2734 23.3646 58.2994 23.4167 58.3307 23.5C58.3567 23.599 58.3202 23.7083 58.2265 23.8333C58.1432 23.9583 58.065 24.0573 57.9973 24.125C57.4244 24.6667 56.7577 24.9896 55.9973 25.0833C55.5494 25.1563 55.1067 25.1771 54.664 25.1458C54.2317 25.1042 53.8098 24.9948 53.3932 24.8125C53.0859 24.6615 52.7994 24.7083 52.539 24.9583C51.9817 25.4583 51.4036 25.9375 50.8098 26.3958C50.5025 26.6198 50.1848 26.8073 49.8515 26.9583C49.5182 27.1146 49.1484 27.2031 48.7473 27.2292C47.5807 27.2031 47.1223 26.6354 47.3723 25.5208C47.388 25.4792 47.4036 25.4479 47.414 25.4167C47.7473 24.5156 48.1952 23.7031 48.7473 22.9792C49.2994 22.2448 49.9973 21.6354 50.8307 21.1458C51.3827 20.8281 51.9817 20.7031 52.6223 20.7708C52.789 20.8125 52.9452 20.875 53.1015 20.9583C53.2942 21.0573 53.3723 21.2031 53.3307 21.3958C53.315 21.4687 53.289 21.5208 53.2473 21.5625C53.2057 21.6042 53.1536 21.6458 53.1015 21.6875C53.0702 21.7292 53.039 21.7604 52.9973 21.7708C52.9557 21.7865 52.9036 21.7917 52.8515 21.7917C52.3932 21.8073 51.9973 21.9375 51.664 22.1875C51.3411 22.4375 51.0442 22.724 50.7682 23.0417C50.4609 23.3906 50.1744 23.7708 49.914 24.1875C49.664 24.5937 49.4557 25.0781 49.289 25.6458C49.8984 25.2865 50.3775 24.9323 50.7265 24.5833C50.7942 24.5156 50.8723 24.4479 50.9557 24.375C51.0077 24.3229 51.0702 24.2656 51.1432 24.2083C51.4452 23.9323 51.7682 23.6823 52.1015 23.4583C52.4765 23.25 52.8515 23.1458 53.2265 23.1458C53.6015 23.1458 53.9661 23.3021 54.3307 23.6042C54.815 24.0365 55.289 24.2031 55.7473 24.1042C56.2057 24.0104 56.6275 23.849 57.0182 23.625C57.4192 23.375 57.7734 23.25 58.0807 23.25Z" fill="black"/>
<path d="M94.6391 23.9583C94.4724 24.1823 94.2849 24.3906 94.0766 24.5833C93.9776 24.7083 93.8682 24.8333 93.7432 24.9583C91.9203 27.0156 90.0141 28.9844 88.0141 30.875C86.1911 32.5833 84.2432 34.1146 82.1599 35.4791C81.0609 36.1875 79.9203 36.776 78.7432 37.25C77.5609 37.7344 76.3266 38.0833 75.0349 38.2916C73.7536 38.5104 72.4776 38.5521 71.2016 38.4166C69.2953 38.151 67.8318 37.5104 66.8057 36.5C65.7745 35.4844 65.0922 34.2291 64.7432 32.7291C64.3995 31.2291 64.2953 29.6354 64.4307 27.9583C64.5557 26.2656 64.8422 24.625 65.2849 23.0416C65.712 21.4479 66.1911 20.0416 66.7224 18.8333C67.8057 16.3646 69.087 14.0208 70.5766 11.8125C72.0609 9.59372 73.7641 7.5156 75.6807 5.58331C75.9568 5.30727 76.0661 5.12497 76.0141 5.04164C75.9724 4.95831 75.8266 4.8906 75.5766 4.83331C75.4516 4.82289 75.3161 4.78643 75.1807 4.72914C74.5401 4.53643 73.9151 4.33331 73.3057 4.12497C72.2641 3.7656 71.2224 3.43227 70.1807 3.12497C69.1495 2.82289 68.1182 2.57289 67.0766 2.37497C66.1286 2.20831 65.1964 2.16664 64.2641 2.24997C63.587 2.28122 62.962 2.46872 62.3891 2.81247C61.988 3.05206 61.6495 3.3281 61.3682 3.64581C61.0922 3.96872 60.9307 4.37497 60.8891 4.87497C60.8474 5.34893 60.5245 5.53122 59.9099 5.41664C59.5089 5.36456 59.3057 5.11977 59.3057 4.68747C59.3057 4.38539 59.3682 4.10414 59.4932 3.85414C59.6182 3.60414 59.7797 3.36456 59.9724 3.12497C60.712 2.2656 61.6391 1.70831 62.7641 1.45831C64.1547 1.15622 65.5661 1.09893 66.9932 1.29164C68.0349 1.44789 69.0557 1.66143 70.0557 1.93747C71.0557 2.21872 72.0557 2.5156 73.0557 2.83331C73.1391 2.86456 73.2224 2.88539 73.3057 2.89581C73.6078 3.01039 73.9151 3.11456 74.2224 3.20831C74.9828 3.41664 75.7328 3.66143 76.4724 3.93747C76.7484 4.05206 76.9984 4.0781 77.2224 4.02081C77.4568 3.96872 77.6911 3.84893 77.9307 3.66664C78.8578 2.90622 79.8682 2.26039 80.9516 1.72914C82.337 1.02081 83.8266 0.614558 85.4099 0.499974C85.8943 0.458307 86.3734 0.473932 86.8474 0.54164C87.3318 0.614558 87.7953 0.749974 88.2432 0.958307C88.962 1.32289 89.3786 1.81247 89.4932 2.43747C89.6026 3.05206 89.3943 3.65622 88.8682 4.24997C88.3682 4.78122 87.7745 5.16143 87.0974 5.39581C86.2745 5.74477 85.4203 5.94789 84.5349 5.99997C83.6443 6.05727 82.7536 6.0781 81.8682 6.06247C80.9776 6.03643 80.1026 5.93747 79.2432 5.77081C79.1703 5.76039 79.1078 5.74477 79.0557 5.72914C78.7328 5.64581 78.4411 5.61456 78.1807 5.62497C77.9151 5.62497 77.6495 5.76039 77.3891 6.02081C75.0974 8.28643 73.087 10.8229 71.3682 13.625C69.6443 16.4323 68.2693 19.3489 67.2432 22.375C66.8682 23.4479 66.5661 24.6406 66.3474 25.9583C66.1234 27.2656 66.0401 28.5677 66.0974 29.875C66.1651 31.1927 66.4411 32.4219 66.9307 33.5625C67.4307 34.6979 68.212 35.651 69.2849 36.4166C70.1859 37.026 71.1807 37.3541 72.2641 37.3958C73.8891 37.4375 75.4568 37.1771 76.9724 36.625C78.5974 36.0104 80.1234 35.2135 81.5557 34.2291C82.8057 33.3646 83.9932 32.4427 85.1182 31.4583C86.2536 30.4687 87.3734 29.4479 88.4724 28.3958C88.8891 28.0104 89.587 27.3541 90.5766 26.4375C91.5609 25.5208 92.462 24.7187 93.2849 24.0208C93.4203 23.8958 93.5557 23.7708 93.6807 23.6458C93.9307 23.4114 94.1495 23.2291 94.3474 23.1041C94.5557 22.9687 94.7484 22.9114 94.9307 22.9375C95.2745 22.9687 95.1807 23.3073 94.6391 23.9583ZM85.3266 1.56247C84.1859 1.72914 83.1078 2.07289 82.0974 2.58331C81.0974 3.09893 80.1078 3.73956 79.1391 4.49997C79.9984 4.79164 80.8995 4.97914 81.8474 5.06247C82.7901 5.13539 83.6599 5.11456 84.4516 4.99997C85.1599 4.8906 85.8318 4.67706 86.4724 4.35414C86.8891 4.14581 87.2328 3.86977 87.5141 3.52081C87.7328 3.17706 87.8057 2.84372 87.7224 2.52081C87.6391 2.2031 87.4099 1.95831 87.0349 1.79164C86.4776 1.55727 85.9099 1.47914 85.3266 1.56247Z" fill="black"/>
<path d="M103.382 23.5833C103.632 23.3229 103.851 23.2187 104.049 23.2708C104.257 23.3281 104.382 23.474 104.424 23.7083C104.476 23.9479 104.408 24.2083 104.215 24.5C103.84 25.0573 103.304 25.6615 102.611 26.3125C101.913 26.9687 101.163 27.5365 100.361 28.0208C99.5539 28.5052 98.7987 28.7708 98.0904 28.8125C96.6321 28.8802 95.9498 28.1823 96.0487 26.7083C96.0592 26.5156 96.0956 26.2604 96.1529 25.9375C96.2206 25.6198 96.2675 25.3125 96.2987 25.0208C96.3404 24.7187 96.3248 24.5104 96.2571 24.3958C96.1581 24.3125 96.0487 24.2708 95.9237 24.2708C95.7987 24.2708 95.6633 24.2865 95.5279 24.3125C95.3717 24.3437 95.2362 24.349 95.1112 24.3333C94.3873 24.25 94.0175 23.8854 93.9862 23.2292C93.9758 22.3281 94.1425 21.4687 94.5071 20.6458C94.6164 20.3854 94.8248 20.2083 95.1321 20.125C95.4342 20.0417 95.7154 20.0781 95.9654 20.2292C96.1321 20.3437 96.205 20.4896 96.1946 20.6667C96.1633 20.9167 96.1217 21.1615 96.0696 21.3958C96.0383 21.5104 96.0123 21.6198 95.9862 21.7292C95.8612 22.3698 95.8612 22.7031 95.9862 22.7292C96.1217 22.7448 96.4237 22.5729 96.8821 22.2083C97.2258 21.9583 97.6008 21.8542 98.0071 21.8958C98.5592 21.9531 98.7831 22.2604 98.6737 22.8125C98.5904 23.2031 98.4967 23.5937 98.4029 23.9792C98.1946 24.8021 98.0331 25.6198 97.9237 26.4375C97.8821 27.0104 97.9758 27.3437 98.2154 27.4375C98.4654 27.5208 98.7883 27.4583 99.1946 27.25C99.5956 27.0417 100.017 26.7656 100.465 26.4167C100.924 26.0729 101.32 25.7292 101.653 25.3958C101.997 25.0521 102.236 24.8021 102.361 24.6458C102.429 24.5781 102.528 24.474 102.653 24.3333C102.778 24.1979 102.908 24.0573 103.049 23.9167C103.2 23.7656 103.309 23.6562 103.382 23.5833Z" fill="black"/>
<path d="M105.328 24.4167C105.312 24.4167 105.297 24.4167 105.286 24.4167C105.286 24.4167 105.291 24.4167 105.307 24.4167C105.307 24.4167 105.312 24.4167 105.328 24.4167ZM112.619 23.375C112.687 23.3229 112.807 23.2656 112.974 23.2083C113.14 23.1406 113.297 23.099 113.453 23.0833C113.604 23.0729 113.713 23.125 113.786 23.25C113.828 23.349 113.833 23.4375 113.807 23.5208C113.791 23.6042 113.75 23.6771 113.682 23.7292C113.307 24.1458 112.713 24.5729 111.911 25C111.104 25.4323 110.271 25.8125 109.411 26.1458C108.547 26.4687 107.833 26.6771 107.265 26.7708C106.609 26.8854 105.953 26.9115 105.286 26.8542C104.453 26.7448 103.833 26.4062 103.432 25.8333C103.031 25.25 102.864 24.599 102.932 23.875C103.057 23.0729 103.422 22.4323 104.036 21.9583C104.661 21.474 105.375 21.2917 106.182 21.4167C106.666 21.4896 107.104 21.6667 107.494 21.9583C107.922 22.3073 108.119 22.7083 108.078 23.1667C108.036 23.6146 107.765 23.9531 107.265 24.1875C107.015 24.3125 106.729 24.3958 106.411 24.4375C106.104 24.4687 105.744 24.4583 105.328 24.4167C105.328 24.4167 105.312 24.4167 105.286 24.4167C105.271 24.4167 105.234 24.4167 105.182 24.4167C105.14 24.4167 105.099 24.4167 105.057 24.4167C104.932 24.4167 104.849 24.4531 104.807 24.5208C104.765 24.5937 104.765 24.6823 104.807 24.7917C105.026 25.3646 105.474 25.6615 106.14 25.6875C106.817 25.7187 107.583 25.5937 108.432 25.3125C109.276 25.0208 110.083 24.6875 110.849 24.3125C111.609 23.9375 112.203 23.625 112.619 23.375ZM105.307 22.7083C105.192 22.7812 105.119 22.8698 105.078 22.9792C105.047 23.0781 105.026 23.1615 105.015 23.2292C105.015 23.3021 105.026 23.3437 105.057 23.3542C105.083 23.3698 105.166 23.3906 105.307 23.4167C105.458 23.4323 105.619 23.4323 105.786 23.4167C105.963 23.4062 106.109 23.3698 106.224 23.3125C106.349 23.2448 106.39 23.1354 106.349 22.9792C106.276 22.7708 106.13 22.6406 105.911 22.5833C105.687 22.5312 105.484 22.5729 105.307 22.7083Z" fill="black"/>
<path d="M122.263 23.25C122.346 23.2656 122.398 23.2917 122.43 23.3333C122.456 23.3646 122.482 23.4167 122.513 23.5C122.539 23.599 122.503 23.7083 122.409 23.8333C122.325 23.9583 122.247 24.0573 122.18 24.125C121.607 24.6667 120.94 24.9896 120.18 25.0833C119.732 25.1563 119.289 25.1771 118.846 25.1458C118.414 25.1042 117.992 24.9948 117.575 24.8125C117.268 24.6615 116.982 24.7083 116.721 24.9583C116.164 25.4583 115.586 25.9375 114.992 26.3958C114.685 26.6198 114.367 26.8073 114.034 26.9583C113.7 27.1146 113.331 27.2031 112.93 27.2292C111.763 27.2031 111.305 26.6354 111.555 25.5208C111.57 25.4792 111.586 25.4479 111.596 25.4167C111.93 24.5156 112.378 23.7031 112.93 22.9792C113.482 22.2448 114.18 21.6354 115.013 21.1458C115.565 20.8281 116.164 20.7031 116.805 20.7708C116.971 20.8125 117.128 20.875 117.284 20.9583C117.476 21.0573 117.555 21.2031 117.513 21.3958C117.497 21.4687 117.471 21.5208 117.43 21.5625C117.388 21.6042 117.336 21.6458 117.284 21.6875C117.253 21.7292 117.221 21.7604 117.18 21.7708C117.138 21.7865 117.086 21.7917 117.034 21.7917C116.575 21.8073 116.18 21.9375 115.846 22.1875C115.523 22.4375 115.226 22.724 114.95 23.0417C114.643 23.3906 114.357 23.7708 114.096 24.1875C113.846 24.5937 113.638 25.0781 113.471 25.6458C114.081 25.2865 114.56 24.9323 114.909 24.5833C114.976 24.5156 115.055 24.4479 115.138 24.375C115.19 24.3229 115.253 24.2656 115.325 24.2083C115.628 23.9323 115.95 23.6823 116.284 23.4583C116.659 23.25 117.034 23.1458 117.409 23.1458C117.784 23.1458 118.148 23.3021 118.513 23.6042C118.997 24.0365 119.471 24.2031 119.93 24.1042C120.388 24.0104 120.81 23.849 121.2 23.625C121.601 23.375 121.956 23.25 122.263 23.25Z" fill="black"/>
<path d="M129.792 23.3541C129.943 23.2291 130.052 23.1875 130.125 23.2291C130.209 23.2604 130.261 23.3333 130.292 23.4583C130.334 23.5729 130.355 23.6823 130.355 23.7916C130.339 24 130.297 24.2031 130.23 24.3958C130.157 24.5781 130.11 24.7031 130.084 24.7708C130.052 24.7864 130.042 24.7916 130.042 24.7916C129.834 25.3229 129.5 25.8489 129.042 26.375C128.594 26.8906 128.068 27.3073 127.459 27.625C126.844 27.9479 126.198 28.0833 125.521 28.0416C124.547 27.9323 123.776 27.5625 123.209 26.9375C122.636 26.302 122.209 25.5416 121.917 24.6666C121.625 23.7916 121.433 22.927 121.334 22.0625C121.073 19.9531 120.995 17.8281 121.105 15.6875C121.12 15.177 121.136 14.6562 121.146 14.125C121.146 13.9479 121.146 13.7656 121.146 13.5833C121.146 13.25 120.99 13.0833 120.667 13.0833C120.334 13.0833 120 13.0781 119.667 13.0625C119.292 13.0625 118.917 13.0625 118.542 13.0625C118.49 13.0625 118.433 13.0625 118.375 13.0625C118.115 13.0937 117.87 13.0416 117.646 12.9166C117.537 12.875 117.448 12.8125 117.375 12.7291C117.308 12.6458 117.271 12.5416 117.271 12.4166C117.287 12.2916 117.334 12.1979 117.417 12.125C117.5 12.0573 117.605 12.0208 117.73 12.0208C118.177 12.0104 118.62 12 119.063 12C119.344 12 119.615 12 119.875 12C120.224 12 120.573 11.9895 120.917 11.9583C121.115 11.9479 121.24 11.8281 121.292 11.6041C121.323 11.3541 121.344 11.0989 121.355 10.8333C121.412 9.99996 121.474 9.16142 121.542 8.31246C121.594 7.72913 121.646 7.16142 121.688 6.60413C121.688 6.57808 121.688 6.55725 121.688 6.54163C121.688 6.43225 121.693 6.32288 121.709 6.20829C121.834 5.72392 122.157 5.49475 122.688 5.52079C123.146 5.55204 123.401 5.80204 123.459 6.27079C123.469 6.57808 123.469 6.89058 123.459 7.20829C123.459 7.33329 123.459 7.46871 123.459 7.60413C123.459 7.60413 123.448 7.60413 123.438 7.60413C123.407 7.95308 123.386 8.30725 123.375 8.66663C123.318 9.45829 123.276 10.2604 123.25 11.0625C123.219 11.4948 123.256 11.7656 123.355 11.875C123.464 11.9739 123.75 12.0156 124.209 12C125.068 12.0156 125.922 12.0208 126.771 12.0208C127.381 12.0208 127.99 12.0312 128.605 12.0416C128.672 12.0416 128.735 12.0416 128.792 12.0416C128.943 12.0312 129.089 12.0364 129.23 12.0625C129.365 12.0937 129.506 12.1406 129.646 12.2083C129.688 12.25 129.719 12.302 129.75 12.3541C129.792 12.3958 129.823 12.4531 129.855 12.5208C129.855 12.6041 129.823 12.677 129.771 12.7291C129.73 12.7708 129.688 12.8073 129.646 12.8333C129.365 12.9895 129.073 13.052 128.771 13.0208C128.73 13.0208 128.672 13.0208 128.605 13.0208C127.688 13.0208 126.776 13.0312 125.875 13.0416C125.375 13.0573 124.865 13.0625 124.355 13.0625C124.313 13.0625 124.276 13.0625 124.25 13.0625C124.026 13.0625 123.792 13.0729 123.542 13.0833C123.292 13.1145 123.146 13.25 123.105 13.5C123.073 13.6406 123.063 13.7708 123.063 13.8958C123.006 15.2448 122.98 16.5989 122.98 17.9583C122.99 19.3073 123.084 20.6458 123.25 21.9791C123.386 23.052 123.667 24.0729 124.084 25.0416C124.318 25.5833 124.594 26.0104 124.917 26.3125C125.25 26.6198 125.625 26.7448 126.042 26.6875C126.802 26.5625 127.396 26.2916 127.813 25.875C128.23 25.4583 128.584 25.0104 128.875 24.5208C129.151 24.052 129.459 23.6614 129.792 23.3541Z" fill="black"/>
<path d="M136.738 23.2708C136.832 23.3281 136.874 23.4114 136.863 23.5208C136.863 23.6354 136.827 23.7395 136.759 23.8333C136.285 24.5312 135.78 25.1458 135.238 25.6874C134.696 26.2291 134.098 26.6406 133.446 26.9166C132.806 27.1822 132.061 27.25 131.217 27.125C130.66 27.0416 130.238 26.8541 129.946 26.5625C129.665 26.2708 129.457 25.8541 129.321 25.3124C129.087 24.4791 129.03 23.6197 129.155 22.7291C129.264 22.2187 129.582 21.9479 130.113 21.9166C130.598 21.9166 130.863 22.1354 130.905 22.5624C130.915 22.927 130.915 23.2812 130.905 23.6249C130.905 23.6666 130.905 23.7083 130.905 23.7499C130.874 24.7083 131.03 25.3645 131.363 25.7083C131.696 26.0572 132.134 26.1458 132.676 25.9791C133.217 25.8125 133.79 25.4322 134.405 24.8333C134.488 24.7656 134.582 24.6666 134.696 24.5416C134.806 24.4062 134.931 24.2656 135.071 24.1249C135.264 23.9322 135.426 23.7656 135.551 23.6249C135.936 23.2395 136.332 23.1197 136.738 23.2708ZM129.988 20.3958C129.556 20.3697 129.311 20.1406 129.259 19.7083C129.202 19.3749 129.249 19.0572 129.405 18.7499C129.54 18.4895 129.764 18.3072 130.071 18.2083C130.389 18.1145 130.686 18.1406 130.967 18.2916C131.077 18.3489 131.155 18.427 131.196 18.5208C131.238 18.6197 131.249 18.7031 131.238 18.7708C131.223 19.8697 130.806 20.4114 129.988 20.3958Z" fill="black"/>
<path d="M141.06 21.4375C141.185 21.4792 141.278 21.5417 141.351 21.625C141.419 21.6979 141.445 21.7917 141.435 21.9167C141.377 22.2239 141.299 22.5208 141.205 22.8125C141.023 23.4271 140.789 24.0208 140.497 24.6042C140.216 25.1771 139.856 25.7031 139.414 26.1875C139.273 26.3437 139.127 26.4896 138.976 26.625C138.836 26.75 138.669 26.8437 138.476 26.8958C138.018 27.0364 137.58 27.0573 137.164 26.9583C136.757 26.8489 136.424 26.5156 136.164 25.9583C135.674 24.9062 135.388 23.8021 135.289 22.6458C135.247 22.2292 135.388 21.9792 135.705 21.8958C135.966 21.8281 136.211 21.8281 136.435 21.8958C136.653 21.9531 136.799 22.0729 136.872 22.25C136.997 22.5729 137.086 22.8958 137.143 23.2292C137.169 23.3281 137.195 23.4167 137.226 23.5C137.252 23.6562 137.278 23.8021 137.31 23.9375C137.403 24.3437 137.502 24.6771 137.601 24.9375C137.695 25.1875 137.836 25.2917 138.018 25.25C138.195 25.1979 138.44 24.8958 138.747 24.3542C139.19 23.5937 139.565 22.7917 139.872 21.9583C140.106 21.4323 140.502 21.2604 141.06 21.4375Z" fill="black"/>
<path d="M144.006 24.4167C143.99 24.4167 143.975 24.4167 143.964 24.4167C143.964 24.4167 143.969 24.4167 143.985 24.4167C143.985 24.4167 143.99 24.4167 144.006 24.4167ZM151.298 23.375C151.365 23.3229 151.485 23.2656 151.652 23.2083C151.818 23.1406 151.975 23.099 152.131 23.0833C152.282 23.0729 152.391 23.125 152.464 23.25C152.506 23.349 152.511 23.4375 152.485 23.5208C152.469 23.6042 152.428 23.6771 152.36 23.7292C151.985 24.1458 151.391 24.5729 150.589 25C149.782 25.4323 148.949 25.8125 148.089 26.1458C147.225 26.4687 146.511 26.6771 145.943 26.7708C145.287 26.8854 144.631 26.9115 143.964 26.8542C143.131 26.7448 142.511 26.4062 142.11 25.8333C141.709 25.25 141.542 24.599 141.61 23.875C141.735 23.0729 142.1 22.4323 142.714 21.9583C143.339 21.474 144.053 21.2917 144.86 21.4167C145.344 21.4896 145.782 21.6667 146.173 21.9583C146.6 22.3073 146.798 22.7083 146.756 23.1667C146.714 23.6146 146.443 23.9531 145.943 24.1875C145.693 24.3125 145.407 24.3958 145.089 24.4375C144.782 24.4687 144.423 24.4583 144.006 24.4167C144.006 24.4167 143.99 24.4167 143.964 24.4167C143.949 24.4167 143.912 24.4167 143.86 24.4167C143.818 24.4167 143.777 24.4167 143.735 24.4167C143.61 24.4167 143.527 24.4531 143.485 24.5208C143.443 24.5937 143.443 24.6823 143.485 24.7917C143.704 25.3646 144.152 25.6615 144.818 25.6875C145.495 25.7187 146.261 25.5937 147.11 25.3125C147.954 25.0208 148.761 24.6875 149.527 24.3125C150.287 23.9375 150.881 23.625 151.298 23.375ZM143.985 22.7083C143.87 22.7812 143.798 22.8698 143.756 22.9792C143.725 23.0781 143.704 23.1615 143.693 23.2292C143.693 23.3021 143.704 23.3437 143.735 23.3542C143.761 23.3698 143.844 23.3906 143.985 23.4167C144.136 23.4323 144.298 23.4323 144.464 23.4167C144.641 23.4062 144.787 23.3698 144.902 23.3125C145.027 23.2448 145.068 23.1354 145.027 22.9792C144.954 22.7708 144.808 22.6406 144.589 22.5833C144.365 22.5312 144.162 22.5729 143.985 22.7083Z" fill="black"/>
<path d="M160.587 23.2708C160.847 23.3281 160.993 23.4739 161.024 23.7083C161.05 23.9479 160.931 24.1823 160.67 24.4167C160.405 24.6562 160.149 24.8698 159.899 25.0625C159.285 25.5625 158.634 26.0989 157.941 26.6667C157.384 27.1146 156.879 27.6042 156.42 28.1458C156.087 28.5052 155.837 28.9167 155.67 29.375C155.488 29.9687 155.181 30.5052 154.754 30.9792C154.504 31.2552 154.217 31.4219 153.899 31.4792C153.592 31.5469 153.274 31.5312 152.941 31.4375C152.774 31.3958 152.649 31.3021 152.566 31.1667C152.483 31.0417 152.462 30.8958 152.504 30.7292C152.556 30.4792 152.655 30.2344 152.795 30C153.004 29.7083 153.217 29.4219 153.441 29.1458C153.451 29.1146 153.472 29.0885 153.504 29.0625C154.306 28.0625 154.358 27.0417 153.649 26C153.483 25.7812 153.295 25.5573 153.087 25.3333C153.014 25.2656 152.946 25.1875 152.879 25.1042C152.754 24.9531 152.618 24.8073 152.483 24.6667C152.217 24.4062 151.967 24.1198 151.733 23.8125C151.04 22.8437 151.082 21.9167 151.858 21.0417C152.535 20.2396 153.379 19.6823 154.379 19.375C155.004 19.1979 155.608 19.25 156.191 19.5417C156.759 19.8489 157.024 20.3229 156.983 20.9583C156.91 21.3906 156.696 21.6458 156.337 21.7292C155.863 21.8125 155.524 21.6667 155.316 21.2917C155.259 21.1406 155.217 21.0104 155.191 20.8958C155.16 20.7708 155.118 20.6823 155.066 20.625C155.024 20.5573 154.946 20.5364 154.837 20.5625C154.738 20.5937 154.571 20.6771 154.337 20.8125C153.988 21.0208 153.681 21.2917 153.42 21.625C153.004 22.125 152.983 22.6614 153.358 23.2292C153.483 23.4114 153.618 23.5781 153.774 23.7292C153.941 23.9271 154.097 24.1146 154.254 24.2917C154.556 24.5989 154.842 24.9114 155.108 25.2292C155.384 25.5521 155.629 25.8906 155.837 26.25C155.988 26.2239 156.254 26.0833 156.629 25.8333C157.014 25.5729 157.431 25.2656 157.879 24.9167C158.321 24.5729 158.733 24.2604 159.108 23.9792C159.41 23.7448 159.629 23.5781 159.754 23.4792C159.847 23.4114 159.972 23.3542 160.129 23.3125C160.28 23.2708 160.431 23.2604 160.587 23.2708Z" fill="black"/>
</svg>
