<svg width="500" height="500" viewBox="0 0 500 500" fill="none" xmlns="http://www.w3.org/2000/svg">
<g clip-path="url(#clip0_24_3)">
<path d="M550 -50H-50V550H550V-50Z" fill="white"/>
<path d="M550 -50H-50V550H550V-50Z" fill="black"/>
<path d="M75 345.321H76.9511V362.15H87.3096V363.858H75V345.321Z" fill="white"/>
<path d="M111.523 362.15V363.858H98.4688V345.321H111.133V347.029H100.42V353.611H109.963V355.283H100.42V362.15H111.523Z" fill="white"/>
<path d="M137.104 362.15V363.858H124.049V345.321H136.713V347.029H126V353.611H135.543V355.283H126V362.15H137.104Z" fill="white"/>
<path d="M149.629 345.321H151.581V362.15H161.939V363.858H149.629V345.321Z" fill="white"/>
<path d="M184.663 358.912H174.375L172.176 363.858H170.118L178.597 345.321H180.512L188.955 363.858H186.898L184.663 358.912ZM183.953 357.311L179.519 347.349L175.085 357.311H183.953Z" fill="white"/>
<path d="M222.801 364C220.974 364 219.325 363.6 217.835 362.79C216.362 361.99 215.218 360.869 214.394 359.446C213.56 358.005 213.152 356.386 213.152 354.607C213.152 352.811 213.56 351.192 214.394 349.769C215.218 348.328 216.362 347.198 217.835 346.389C219.325 345.588 220.992 345.179 222.837 345.179C224.202 345.179 225.47 345.41 226.632 345.855C227.785 346.309 228.77 346.985 229.577 347.883L228.335 349.128C226.889 347.661 225.071 346.922 222.872 346.922C221.4 346.922 220.07 347.26 218.863 347.919C217.675 348.586 216.744 349.511 216.061 350.694C215.396 351.859 215.068 353.166 215.068 354.607C215.068 356.057 215.396 357.365 216.061 358.521C216.744 359.686 217.675 360.602 218.863 361.26C220.07 361.928 221.4 362.257 222.872 362.257C225.089 362.257 226.916 361.527 228.335 360.051L229.577 361.296C228.77 362.177 227.776 362.853 226.597 363.324C225.435 363.778 224.167 364 222.801 364Z" fill="white"/>
<path d="M254.277 363.858L250.056 357.916C249.577 357.969 249.098 357.987 248.601 357.987H243.635V363.858H241.684V345.321H248.601C250.943 345.321 252.787 345.891 254.135 347.029C255.483 348.15 256.157 349.697 256.157 351.69C256.157 353.14 255.785 354.358 255.058 355.354C254.321 356.351 253.266 357.062 251.9 357.489L256.441 363.858H254.277ZM248.53 356.315C250.375 356.315 251.767 355.915 252.716 355.105C253.683 354.305 254.171 353.166 254.171 351.69C254.171 350.196 253.683 349.048 252.716 348.239C251.767 347.438 250.375 347.029 248.53 347.029H243.635V356.315H248.53Z" fill="white"/>
<path d="M281.744 362.15V363.858H268.689V345.321H281.354V347.029H270.64V353.611H280.183V355.283H270.64V362.15H281.744Z" fill="white"/>
<path d="M305.834 358.912H295.547L293.347 363.858H291.29L299.768 345.321H301.684L310.127 363.858H308.069L305.834 358.912ZM305.125 357.311L300.69 347.349L296.256 357.311H305.125Z" fill="white"/>
<path d="M324.7 347.029H318.208V345.321H333.143V347.029H326.651V363.858H324.7V347.029Z" fill="white"/>
<path d="M344.19 345.321H346.141V363.858H344.19V345.321Z" fill="white"/>
<path d="M375.444 345.321L367.25 363.858H365.334L357.139 345.321H359.268L366.327 361.438L373.458 345.321H375.444Z" fill="white"/>
<path d="M399.484 362.15V363.858H386.429V345.321H399.094V347.029H388.381V353.611H397.923V355.283H388.381V362.15H399.484Z" fill="white"/>
<path d="M417.082 364C415.708 364 414.395 363.787 413.145 363.36C411.886 362.915 410.919 362.328 410.236 361.616L411.016 360.086C411.673 360.78 412.56 361.332 413.677 361.759C414.786 362.168 415.921 362.363 417.082 362.363C418.732 362.363 419.974 362.061 420.807 361.438C421.632 360.825 422.049 360.033 422.049 359.055C422.049 358.325 421.818 357.738 421.375 357.311C420.923 356.867 420.364 356.52 419.708 356.279C419.069 356.048 418.164 355.781 417.012 355.497C415.61 355.141 414.502 354.803 413.677 354.465C412.843 354.136 412.134 353.638 411.549 352.971C410.981 352.312 410.697 351.405 410.697 350.267C410.697 349.324 410.928 348.47 411.407 347.705C411.903 346.922 412.657 346.309 413.677 345.855C414.715 345.41 415.992 345.179 417.508 345.179C418.546 345.179 419.575 345.321 420.594 345.606C421.605 345.891 422.483 346.3 423.22 346.816L422.546 348.381C421.783 347.865 420.958 347.483 420.062 347.243C419.184 346.985 418.333 346.851 417.508 346.851C415.876 346.851 414.644 347.162 413.819 347.776C413.012 348.399 412.613 349.199 412.613 350.196C412.613 350.934 412.834 351.53 413.287 351.974C413.73 352.428 414.289 352.775 414.954 353.006C415.637 353.246 416.559 353.504 417.721 353.789C419.069 354.127 420.151 354.456 420.985 354.785C421.809 355.123 422.519 355.621 423.113 356.279C423.698 356.947 424 357.836 424 358.948C424 359.9 423.734 360.762 423.22 361.545C422.723 362.31 421.951 362.915 420.914 363.36C419.867 363.787 418.59 364 417.082 364Z" fill="white"/>
<path d="M138.199 136H174.419V137.352C170.561 137.352 167.758 138.517 166.011 140.839C164.282 143.169 163.191 146.949 162.748 152.188C162.295 157.436 162.074 164.498 162.074 173.393V269.099H179.101C181.247 269.099 184.041 269.046 187.473 268.922C190.923 268.779 194.657 268.486 198.683 268.032C202.701 267.587 206.7 266.894 210.673 265.969C214.647 265.026 218.309 263.789 221.67 262.268C225.023 260.73 227.71 258.817 229.723 256.54C231.727 254.263 232.738 251.506 232.738 248.25H234.051V270.451H138.199V269.099C142.048 269.099 144.842 267.943 146.571 265.613C148.318 263.291 149.418 259.484 149.87 254.192C150.314 248.909 150.544 241.864 150.544 233.058V173.393C150.544 164.498 150.314 157.436 149.87 152.188C149.418 146.949 148.318 143.169 146.571 140.839C144.842 138.517 142.048 137.352 138.199 137.352V136Z" fill="white"/>
<path d="M288.074 312.637C279.773 312.637 272.005 310.912 264.768 307.478C257.531 304.018 251.181 299.135 245.718 292.82C240.273 286.487 236.034 279.069 232.983 270.548C229.95 262.036 228.442 252.75 228.442 242.69C228.442 232.568 229.95 223.264 232.983 214.796C236.034 206.328 240.273 198.946 245.718 192.631C251.181 186.298 257.531 181.415 264.768 177.972C272.005 174.512 279.773 172.778 288.074 172.778C295.755 172.778 302.237 173.658 307.514 175.411C312.782 177.172 317.004 179.458 320.179 182.277C323.371 185.106 325.677 188.175 327.096 191.492C328.533 194.819 329.26 197.994 329.26 201.027C329.26 205.706 328.338 209.922 326.493 213.693C324.666 217.447 322.325 220.845 319.469 223.904C316.605 226.946 313.545 229.793 310.281 232.443C307.018 235.076 303.949 237.602 301.093 240.021C298.229 242.441 295.879 244.86 294.034 247.279C292.207 249.699 291.303 252.252 291.303 254.929C291.303 256.992 291.631 258.682 292.296 259.981C292.979 261.288 293.981 262.525 295.311 263.681C292.899 264.233 290.815 263.877 289.068 262.614C287.338 261.36 285.999 259.652 285.059 257.49C284.137 255.338 283.676 253.239 283.676 251.193C283.676 247.235 284.58 243.668 286.407 240.484C288.252 237.309 290.593 234.382 293.431 231.696C296.287 228.992 299.302 226.43 302.477 224.011C305.67 221.592 308.694 219.155 311.558 216.682C314.414 214.218 316.755 211.621 318.582 208.89C320.427 206.168 321.349 203.189 321.349 199.96C321.349 191.973 318.591 185.72 313.084 181.21C307.594 176.683 299.258 174.415 288.074 174.415C281.121 174.415 274.736 176.122 268.918 179.538C263.1 182.936 258.063 187.703 253.806 193.84C249.567 199.987 246.294 207.209 243.98 215.508C241.656 223.789 240.503 232.852 240.503 242.69C240.503 252.465 241.745 261.529 244.228 269.872C246.729 278.197 250.17 285.437 254.551 291.575C258.95 297.721 264.023 302.497 269.77 305.913C275.534 309.311 281.636 311.001 288.074 311.001C294.078 311.001 299.222 310.236 303.506 308.724C307.78 307.212 311.399 305.335 314.361 303.102C317.314 300.852 319.655 298.61 321.385 296.378C323.132 294.128 324.382 292.242 325.145 290.721C325.899 289.182 326.28 288.408 326.28 288.408H327.77V306.447C322.396 308.154 316.578 309.613 310.317 310.823C304.073 312.032 296.659 312.637 288.074 312.637Z" fill="white"/>
</g>
<defs>
<clipPath id="clip0_24_3">
<rect width="500" height="500" rx="250" fill="white"/>
</clipPath>
</defs>
</svg>
